<?xml version="1.0" encoding="utf-8"?>
<!-- Generator: Adobe Illustrator 22.1.0, SVG Export Plug-In . SVG Version: 6.00 Build 0)  -->
<svg version="1.1" id="bell" xmlns="http://www.w3.org/2000/svg" xmlns:xlink="http://www.w3.org/1999/xlink" x="0px" y="0px"
	 viewBox="0 0 98.9 126.9" style="enable-background:new 0 0 98.9 126.9;" xml:space="preserve">
<style type="text/css">
	.Drop_x0020_Shadow{fill:none;}
	.Round_x0020_Corners_x0020_2_x0020_pt{fill:#FFFFFF;stroke:#201600;stroke-miterlimit:10;}
	.Live_x0020_Reflect_x0020_X{fill:none;}
	.Bevel_x0020_Soft{fill:url(#SVGID_1_);}
	.Dusk{fill:#FFFFFF;}
	.Foliage_GS{fill:#FBDB44;}
	.Pompadour_GS{fill-rule:evenodd;clip-rule:evenodd;fill:#73ACE1;}
	.st0{opacity:0.59;fill:#2E2E2E;}
	.st1{fill:#F4C708;}
	.st2{fill:none;stroke:#050505;stroke-width:0.75;stroke-miterlimit:10;}
	.st3{fill:#62BFF9;}
	.st4{fill:none;stroke:#246077;stroke-miterlimit:10;}
	.st5{opacity:0.74;fill:url(#shadow_bottom_1_);}
	.st6{fill:url(#main_part_fill_1_);}
	.st7{fill:url(#ribbon_2_left_shadow_1_);}
	.st8{fill:none;stroke:#246077;stroke-width:2;stroke-miterlimit:10;}
	.st9{fill:url(#ribbon_2_right_shadow_1_);}
	.st10{fill:url(#ribbon_shadow_left_1_);}
	.st11{fill:url(#ribbon_shadow_right_1_);}
	.st12{fill:#2195CE;}
	.st13{fill:none;stroke:#205D75;stroke-width:2;stroke-miterlimit:10;}
	.st14{opacity:0.85;}
	.st15{fill:#FCFCFC;}
	.st16{fill:#FFFFFF;}
	.st17{opacity:0.81;}
</style>
<linearGradient id="SVGID_1_" gradientUnits="userSpaceOnUse" x1="-346.6703" y1="-242.4556" x2="-345.9632" y2="-241.7485">
	<stop  offset="0" style="stop-color:#DCDDE3"/>
	<stop  offset="0.1783" style="stop-color:#D8D9DF"/>
	<stop  offset="0.3611" style="stop-color:#CCCDD3"/>
	<stop  offset="0.546" style="stop-color:#B7B9BE"/>
	<stop  offset="0.7324" style="stop-color:#9A9DA1"/>
	<stop  offset="0.9181" style="stop-color:#76797D"/>
	<stop  offset="1" style="stop-color:#63676A"/>
</linearGradient>
<path id="bell_shadow_1_" class="st0" d="M98.9,102.8v9c0,3.4-2.7,6.1-6.1,6.1H65c-0.1,5-4.1,9-9.1,9h-7.9c-5,0-9.1-4.1-9.1-9H10.1
	c-3.4,0-6.1-2.7-6.1-6.1v-8.3h0c0,0-0.2-4.8,1.1-5.7s12.3-17.1,15.9-43.9c2.2-16,12.5-22.4,20.5-24.9c-0.5-1.2-0.7-2.5-0.7-3.8V12.8
	c0-5.8,4.8-10.6,10.6-10.6c2.9,0,5.6,1.2,7.5,3.1c1.9,1.9,3.1,4.6,3.1,7.5v7.6c5.5-4.3,13.6-9.4,17.2-5.9c5.7,5.5,13,17.8,2.5,31.9
	c-0.4,0.5-0.8,1-1.2,1.5c0.6,1.8,1,3.8,1.3,6c3.6,26.9,14.6,43,15.9,43.9C98.7,98.5,98.8,101.4,98.9,102.8
	C98.9,102.8,98.9,102.8,98.9,102.8z"/>
<path id="top_bell_fill" class="st1" d="M49.1,33.8h-2.7c-5.1,0-9.3-4.2-9.3-9.3v-15c0-5.1,4.2-9.3,9.3-9.3h2.7
	c5.1,0,9.3,4.2,9.3,9.3v15C58.4,29.7,54.2,33.8,49.1,33.8z"/>
<path id="top_bell_stroke" class="st2" d="M49.1,33.8h-2.7c-5.1,0-9.3-4.2-9.3-9.3v-15c0-5.1,4.2-9.3,9.3-9.3h2.7
	c5.1,0,9.3,4.2,9.3,9.3v15C58.4,29.7,54.2,33.8,49.1,33.8z"/>
<path id="bottom_button_fill" class="st3" d="M45.3,99h6.1c5.5,0,10,4.5,10,10v6.1c0,5.5-4.5,10-10,10h-6.1c-5.5,0-10-4.5-10-10V109
	C35.3,103.5,39.8,99,45.3,99z"/>
<path id="bottom_button_stroke" class="st4" d="M45.3,99h6.1c5.5,0,10,4.5,10,10v6.1c0,5.5-4.5,10-10,10h-6.1c-5.5,0-10-4.5-10-10
	V109C35.3,103.5,39.8,99,45.3,99z"/>
<linearGradient id="shadow_bottom_1_" gradientUnits="userSpaceOnUse" x1="48.3565" y1="114.7643" x2="48.3565" y2="118.483">
	<stop  offset="0.3762" style="stop-color:#6086C4"/>
	<stop  offset="0.8506" style="stop-color:#6086C4;stop-opacity:0"/>
</linearGradient>
<path id="shadow_bottom" class="st5" d="M59.4,118.5H37.3c-0.9,0-1.6-0.7-1.6-1.6v-0.5c0-0.9,0.7-1.6,1.6-1.6h22.2
	c0.9,0,1.6,0.7,1.6,1.6v0.5C61.1,117.8,60.3,118.5,59.4,118.5z"/>
<linearGradient id="main_part_fill_1_" gradientUnits="userSpaceOnUse" x1="11.0231" y1="65.0028" x2="100.7503" y2="93.5551">
	<stop  offset="0.1623" style="stop-color:#F7D16F"/>
	<stop  offset="0.3791" style="stop-color:#F6ED54"/>
	<stop  offset="0.6567" style="stop-color:#F6EB56"/>
	<stop  offset="0.8711" style="stop-color:#F7D374"/>
</linearGradient>
<path id="main_part_fill" class="st6" d="M95.2,101v9c0,3.4-2.7,6.1-6.1,6.1H6.5c-3.4,0-6.1-2.7-6.1-6.1v-8.3h0c0,0-0.2-4.8,1.1-5.7
	S13.8,78.9,17.5,52s30.3-26.6,30.3-26.6S74.5,25.1,78.1,52s14.6,43,15.9,43.9C95.1,96.6,95.2,99.6,95.2,101L95.2,101
	C95.2,101,95.2,101,95.2,101z"/>
<path id="main_part_stroke" class="st2" d="M95.2,101v9c0,3.4-2.7,6.1-6.1,6.1H6.5c-3.4,0-6.1-2.7-6.1-6.1v-8.3h0
	c0,0-0.2-4.8,1.1-5.7S13.8,78.9,17.5,52s30.3-26.6,30.3-26.6S74.5,25.1,78.1,52s14.6,43,15.9,43.9C95.1,96.6,95.2,99.6,95.2,101
	L95.2,101C95.2,101,95.2,101,95.2,101z"/>
<path id="ribbon_2_left_fill_1_" class="st3" d="M29.3,80.9c0,0,11.2-30.4,17.2-37.3s-11.2-7.1-11.2-7.1L18.6,67.3L29.3,80.9z"/>
<linearGradient id="ribbon_2_left_shadow_1_" gradientUnits="userSpaceOnUse" x1="38.2115" y1="34.5267" x2="38.2115" y2="60.8235">
	<stop  offset="0" style="stop-color:#6086C4"/>
	<stop  offset="0.5036" style="stop-color:#6086C4;stop-opacity:0.8"/>
	<stop  offset="0.8549" style="stop-color:#6086C4;stop-opacity:0"/>
</linearGradient>
<path id="ribbon_2_left_shadow" class="st7" d="M26.9,53.9l2.3-4.2l4.5-10.6L44,34.5l5.5,1.1L47,41.3c-0.1,0.2-0.2,0.5-0.4,0.7
	c-0.3,0.4-1,1.3-2.3,3c-2.1,2.8-8,15.8-8,15.8L26.9,53.9z"/>
<path id="ribbon_2_right_fill" class="st3" d="M68,80.9c0,0-11.2-30.4-17.2-37.3S62,36.5,62,36.5l16.7,30.7L68,80.9z"/>
<path id="ribbon_2_left_stroke_1_" class="st8" d="M29.5,80.9c0,0,11.2-30.4,17.2-37.3s-11.2-7.1-11.2-7.1L18.8,67.3L29.5,80.9z"/>
<path id="ribbon_2_right_stroke" class="st8" d="M68,80.9c0,0-11.2-30.4-17.2-37.3S62,36.5,62,36.5l16.7,30.7L68,80.9z"/>
<linearGradient id="ribbon_2_right_shadow_1_" gradientUnits="userSpaceOnUse" x1="59.1493" y1="34.5267" x2="59.1493" y2="60.8235">
	<stop  offset="0" style="stop-color:#6086C4"/>
	<stop  offset="0.4075" style="stop-color:#6086C4;stop-opacity:0.8"/>
	<stop  offset="0.8506" style="stop-color:#6086C4;stop-opacity:0"/>
</linearGradient>
<path id="ribbon_2_right_shadow" class="st9" d="M70.5,53.9l-2.3-4.2l-4.5-10.6l-10.4-4.6l-5.5,1.1l2.5,5.7c0.1,0.2,0.2,0.5,0.4,0.7
	c0.3,0.4,1,1.3,2.3,3c2.1,2.8,8,15.8,8,15.8L70.5,53.9z"/>
<path id="ribbon_2_left_fill" class="st3" d="M43.6,23.4c0,0-17.2-16.2-22.9-10.8s-13,17.8-2.5,31.9s25.5-7.9,25.5-7.9L43.6,23.4z"
	/>
<path id="ribbon_2_left_stroke" class="st8" d="M43.6,23.4c0,0-17.2-16.2-22.9-10.8s-13,17.8-2.5,31.9s25.5-7.9,25.5-7.9L43.6,23.4z
	"/>
<path id="ribbon_1_right_fill" class="st3" d="M52.7,23.4c0,0,17.2-16.2,22.9-10.8s13,17.8,2.5,31.9s-25.5-7.9-25.5-7.9L52.7,23.4z"
	/>
<path id="ribbon_1_right_stroke_1_" class="st8" d="M52.7,23.4c0,0,17.2-16.2,22.9-10.8s13,17.8,2.5,31.9s-25.5-7.9-25.5-7.9
	L52.7,23.4z"/>
<linearGradient id="ribbon_shadow_left_1_" gradientUnits="userSpaceOnUse" x1="20.042" y1="45.8855" x2="32.9774" y2="23.4808">
	<stop  offset="0" style="stop-color:#6086C4"/>
	<stop  offset="0.8506" style="stop-color:#6086C4;stop-opacity:0"/>
</linearGradient>
<path id="ribbon_shadow_left" class="st10" d="M43.8,35.6c0,0-15,22-25.5,7.9c-4.8-6.4-5.4-13.9-3.9-18.6c0.5,3.6,0.9,8.5,3.9,12.6
	c10.1,13.7,24.5-6.5,25.5-7.8L43.8,35.6z"/>
<linearGradient id="ribbon_shadow_right_1_" gradientUnits="userSpaceOnUse" x1="79.2182" y1="42.6868" x2="59.4525" y2="22.9212">
	<stop  offset="6.416266e-02" style="stop-color:#6086C4"/>
	<stop  offset="0.8695" style="stop-color:#6086C4;stop-opacity:0"/>
</linearGradient>
<path id="ribbon_shadow_right" class="st11" d="M78.2,43.5c-10.5,14.1-25.5-7.9-25.5-7.9l0-5.9c0.9,1.3,15.3,21.5,25.4,7.8
	c3-4.1,3.2-8.9,3.7-12.6C83.1,30.4,82.9,37.1,78.2,43.5z"/>
<path id="ribbon_centre_fill" class="st12" d="M48.9,39.9h-1.4c-2.6,0-4.8-2.2-4.8-4.8v-9.5c0-2.6,2.2-4.8,4.8-4.8h1.4
	c2.6,0,4.8,2.2,4.8,4.8v9.5C53.7,37.8,51.5,39.9,48.9,39.9z"/>
<path id="ribbon_centre_stroke_1_" class="st13" d="M48.9,39.9h-1.4c-2.6,0-4.8-2.2-4.8-4.8v-9.5c0-2.6,2.2-4.8,4.8-4.8h1.4
	c2.6,0,4.8,2.2,4.8,4.8v9.5C53.7,37.8,51.5,39.9,48.9,39.9z"/>
<g id="highlights">
	<g class="st14">
		<g>
			<path class="st15" d="M38.8,120.4c0,0,0.1,0,0.1,0c1.3,0,1.3-2,0-2c0,0-0.1,0-0.1,0C37.5,118.4,37.5,120.4,38.8,120.4L38.8,120.4
				z"/>
		</g>
	</g>
	<g class="st14">
		<g>
			<path class="st15" d="M40.1,122.4c1.7,1,3.5,1.4,5.4,1.4c1.3,0,1.3-2,0-2c-1.6,0.1-3-0.3-4.4-1.1C40,120,38.9,121.7,40.1,122.4
				L40.1,122.4z"/>
		</g>
	</g>
	<g>
		<g>
			<path class="st16" d="M73.3,64.8c0.5,1.3,0.5,2.8-0.4,4c-0.8,1,0.6,2.4,1.4,1.4c1.3-1.7,1.8-3.9,1-5.9
				C74.8,63.1,72.8,63.6,73.3,64.8L73.3,64.8z"/>
		</g>
	</g>
	<g>
		<g>
			<path class="st16" d="M71.9,72.8c1.3,0,1.3-2,0-2C70.6,70.8,70.6,72.8,71.9,72.8L71.9,72.8z"/>
		</g>
	</g>
	<g>
		<g>
			<path class="st16" d="M22.1,64.3c-0.8,2-0.4,4.2,1,5.9c0.8,1,2.2-0.4,1.4-1.4c-0.9-1.2-1-2.7-0.4-4
				C24.5,63.6,22.6,63.1,22.1,64.3L22.1,64.3z"/>
		</g>
	</g>
	<g>
		<g>
			<path class="st16" d="M25.5,72.8c1.3,0,1.3-2,0-2C24.2,70.8,24.2,72.8,25.5,72.8L25.5,72.8z"/>
		</g>
	</g>
	<g class="st17">
		<g>
			<path class="st15" d="M46.5,5.2c1.9,0,1.9-3,0-3C44.6,2.2,44.6,5.2,46.5,5.2L46.5,5.2z"/>
		</g>
	</g>
	<g class="st17">
		<g>
			<path class="st15" d="M42.8,3.9c-4.4,1.8-4,6.8-4.1,10.8c0,1.9,3,1.9,3,0c0-2.1-0.6-6.9,1.9-7.9C45.4,6.1,44.6,3.2,42.8,3.9
				L42.8,3.9z"/>
		</g>
	</g>
	<g class="st17">
		<g>
			<path class="st15" d="M68.5,19.2c2.5-0.2,4.9,1.2,5.2,3.9c0.2,2.5,4.2,2.6,4,0c-0.4-4.7-4.3-8.4-9.2-7.9
				C65.9,15.4,65.9,19.4,68.5,19.2L68.5,19.2z"/>
		</g>
	</g>
	<g class="st17">
		<g>
			<path class="st15" d="M27.4,15.2c-4.9-0.5-8.7,3.2-9.2,7.9c-0.2,2.6,3.8,2.5,4,0c0.2-2.7,2.6-4.2,5.2-3.9
				C30,19.4,29.9,15.4,27.4,15.2L27.4,15.2z"/>
		</g>
	</g>
</g>
</svg>
