<?xml version="1.0" encoding="utf-8"?>
<!-- Generator: Adobe Illustrator 22.1.0, SVG Export Plug-In . SVG Version: 6.00 Build 0)  -->
<svg version="1.1" id="clock" xmlns="http://www.w3.org/2000/svg" xmlns:xlink="http://www.w3.org/1999/xlink" x="0px" y="0px"
	 viewBox="0 0 130 128.3" style="enable-background:new 0 0 130 128.3;" xml:space="preserve">
<style type="text/css">
	.Drop_x0020_Shadow{fill:none;}
	.Round_x0020_Corners_x0020_2_x0020_pt{fill:#FFFFFF;stroke:#201600;stroke-miterlimit:10;}
	.Live_x0020_Reflect_x0020_X{fill:none;}
	.Bevel_x0020_Soft{fill:url(#SVGID_1_);}
	.Dusk{fill:#FFFFFF;}
	.Foliage_GS{fill:#FBDB44;}
	.Pompadour_GS{fill-rule:evenodd;clip-rule:evenodd;fill:#73ACE1;}
	.st0{opacity:0.59;}
	.st1{fill:#2E2E2E;}
	.st2{fill:url(#trotters_right_fill_1_);}
	.st3{fill:none;stroke:#023D4F;stroke-width:3;stroke-miterlimit:10;}
	.st4{fill:url(#trotters_left_fill_1_);}
	.st5{fill:url(#bell_left_fill_1_);}
	.st6{fill:url(#bell_right_fill_1_);}
	.st7{fill:url(#main_blue_circle_fill_1_);}
	.st8{opacity:0.51;fill:#FCFCFC;}
	.st9{opacity:0.58;fill:url(#blue_shadow_1_);}
	.st10{fill:none;stroke:#042E38;stroke-width:3;stroke-miterlimit:10;}
	.st11{opacity:0.6;fill:#2E2E2E;}
	.st12{fill:url(#arrows_1_);stroke:#023D4F;stroke-miterlimit:10;}
	.st13{fill:#023D4F;}
	.st14{fill:#046277;stroke:#201600;stroke-miterlimit:10;}
	.st15{fill:#FFFFFF;}
</style>
<linearGradient id="SVGID_1_" gradientUnits="userSpaceOnUse" x1="-329.9934" y1="-241.9694" x2="-329.2863" y2="-241.2623">
	<stop  offset="0" style="stop-color:#DCDDE3"/>
	<stop  offset="0.1783" style="stop-color:#D8D9DF"/>
	<stop  offset="0.3611" style="stop-color:#CCCDD3"/>
	<stop  offset="0.546" style="stop-color:#B7B9BE"/>
	<stop  offset="0.7324" style="stop-color:#9A9DA1"/>
	<stop  offset="0.9181" style="stop-color:#76797D"/>
	<stop  offset="1" style="stop-color:#63676A"/>
</linearGradient>
<g id="clock_shadow" class="st0">
	<path class="st1" d="M122.9,72.2c-0.1,12.9-4.6,24.9-12.2,34.3c3.6,4.8,7.2,9.6,10.6,14.4c1.4,2,0.9,4.6-0.8,6.1
		c-1.7,1.5-4.4,1.7-6,0.1c-4.1-4-8-8.2-12-12.3c-9.5,7.8-21.7,12.5-34.8,12.4c-15.6-0.1-29.7-6.7-39.7-17.2c1.2,1.3,2.3,2.6,3.5,3.8
		c-4,4.2-8,8.4-12.1,12.4c-1.7,1.6-4.3,1.4-6-0.1c-1.8-1.6-2.1-4.2-0.7-6.3c2.2-3.1,4.5-6.1,6.8-9.1c1.4-1.8,2.8-3.7,4.2-5.6
		c0.8,0.9,1.5,1.7,2.3,2.6C17.6,98,12.6,85.5,12.7,72c0.2-30.3,24.8-55,54.9-55h-0.9v-5.9h-4.1c-0.7-2.6,0-5.2,1.9-6.7
		C66.4,3.1,68.3,3,70.3,4c2.3,1.2,3.1,3.4,2.7,7.1h-4.1V17h-1C98.3,17.2,123,42,122.9,72.2z"/>
	<path class="st1" d="M125.5,48.5C114.7,37.7,104,27,93.3,16.3c6.8-5.9,20.1-6.8,29.2,1.5C131.2,25.9,132.5,40,125.5,48.5z"/>
	<path class="st1" d="M42.4,16.3C31.6,27.1,20.8,37.8,10.1,48.5c-6.3-7.7-6.7-21.2,2.2-30C21.1,9.7,34.7,10.1,42.4,16.3z"/>
</g>
<linearGradient id="trotters_right_fill_1_" gradientUnits="userSpaceOnUse" x1="100.1066" y1="115.1694" x2="119.877" y2="115.1694">
	<stop  offset="0.2078" style="stop-color:#F6EB56"/>
	<stop  offset="0.5127" style="stop-color:#FDDF6B"/>
	<stop  offset="0.879" style="stop-color:#E9A854"/>
</linearGradient>
<path id="trotters_right_fill" class="st2" d="M118.2,125.1c-1.7,1.5-4.4,1.7-6,0.1c-4.1-4.1-8.1-8.3-12.1-12.4
	c2.5-2.8,5.2-5.7,7.9-8.7c3.7,5,7.4,9.9,11,15C120.5,121,120,123.6,118.2,125.1z"/>
<path id="trotters_right_stroke" class="st3" d="M118.2,125.1c-1.7,1.5-4.4,1.7-6,0.1c-4.1-4.1-8.1-8.3-12.1-12.4
	c2.5-2.8,5.2-5.7,7.9-8.7c3.7,5,7.4,9.9,11,15C120.5,121,120,123.6,118.2,125.1z"/>
<linearGradient id="trotters_left_fill_1_" gradientUnits="userSpaceOnUse" x1="7.5804" y1="115.1822" x2="27.3059" y2="115.1822">
	<stop  offset="0.2078" style="stop-color:#F6EB56"/>
	<stop  offset="0.5127" style="stop-color:#FDDF6B"/>
	<stop  offset="0.879" style="stop-color:#E9A854"/>
</linearGradient>
<path id="trotters_left_fill" class="st4" d="M27.3,112.7c-4,4.2-8,8.4-12.1,12.5c-1.7,1.6-4.3,1.4-6-0.1c-1.8-1.6-2.1-4.2-0.7-6.3
	c2.2-3.1,4.5-6.1,6.8-9.1c1.4-1.8,2.8-3.7,4.2-5.6C22.2,107.1,24.8,110,27.3,112.7z"/>
<path id="trotters_left_stroke" class="st3" d="M27.3,112.7c-4,4.2-8,8.4-12.1,12.5c-1.7,1.6-4.3,1.4-6-0.1
	c-1.8-1.6-2.1-4.2-0.7-6.3c2.2-3.1,4.5-6.1,6.8-9.1c1.4-1.8,2.8-3.7,4.2-5.6C22.2,107.1,24.8,110,27.3,112.7z"/>
<linearGradient id="bell_left_fill_1_" gradientUnits="userSpaceOnUse" x1="1.5" y1="27.3077" x2="38.3067" y2="27.3077">
	<stop  offset="0.2078" style="stop-color:#F6EB56"/>
	<stop  offset="0.5127" style="stop-color:#FDDF6B"/>
	<stop  offset="0.879" style="stop-color:#E9A854"/>
</linearGradient>
<path id="bell_left_fill" class="st5" d="M38.3,13.5C27.5,24.3,16.8,35,6.1,45.7c-6.3-7.7-6.7-21.2,2.2-30
	C17.1,6.9,30.7,7.2,38.3,13.5z"/>
<path id="bell_left_stroke" class="st3" d="M38.3,13.5C27.5,24.3,16.8,35,6.1,45.7c-6.3-7.7-6.7-21.2,2.2-30
	C17.1,6.9,30.7,7.2,38.3,13.5z"/>
<linearGradient id="bell_right_fill_1_" gradientUnits="userSpaceOnUse" x1="89.2188" y1="27.301" x2="125.9543" y2="27.301">
	<stop  offset="0.2078" style="stop-color:#F6EB56"/>
	<stop  offset="0.5127" style="stop-color:#FDDF6B"/>
	<stop  offset="0.879" style="stop-color:#E9A854"/>
</linearGradient>
<path id="bell_right_fill" class="st6" d="M121.4,45.7c-10.8-10.8-21.5-21.5-32.2-32.2c6.8-5.9,20.2-6.8,29.2,1.5
	C127.2,23,128.5,37.1,121.4,45.7z"/>
<path id="bell_right_stroke" class="st3" d="M121.4,45.7c-10.8-10.8-21.5-21.5-32.2-32.2c6.8-5.9,20.2-6.8,29.2,1.5
	C127.2,23,128.5,37.1,121.4,45.7z"/>
<linearGradient id="main_blue_circle_fill_1_" gradientUnits="userSpaceOnUse" x1="8.6354" y1="69.268" x2="118.8066" y2="69.268">
	<stop  offset="1.644631e-02" style="stop-color:#4969DC"/>
	<stop  offset="0.5444" style="stop-color:#7CE0FF"/>
	<stop  offset="1" style="stop-color:#4969DC"/>
</linearGradient>
<path id="main_blue_circle_fill" class="st7" d="M118.8,69.4c-0.1,30.3-25.1,55.1-55.2,55c-30.3-0.2-55.1-25-54.9-55.1
	c0.1-30.4,25-55.1,55.2-55C94.2,14.4,118.9,39.1,118.8,69.4z"/>
<path id="main_blue_circle_stroke" class="st3" d="M118.8,69.4c-0.1,30.3-25.1,55.1-55.2,55c-30.3-0.2-55.1-25-54.9-55.1
	c0.1-30.4,25-55.1,55.2-55C94.2,14.4,118.9,39.1,118.8,69.4z"/>
<path id="white_circle_fill" class="st8" d="M108.9,69.4c-0.1,24.9-20.6,45.2-45.3,45.1c-24.9-0.1-45.2-20.5-45.1-45.2
	C18.6,44.3,39,24,63.8,24.1C88.8,24.2,109,44.6,108.9,69.4z"/>
<linearGradient id="blue_shadow_1_" gradientUnits="userSpaceOnUse" x1="19.2572" y1="69.3865" x2="75.8333" y2="69.3865">
	<stop  offset="0.1274" style="stop-color:#6086C4"/>
	<stop  offset="0.9211" style="stop-color:#7CE0FF;stop-opacity:0"/>
</linearGradient>
<path id="blue_shadow_2_" class="st9" d="M40.7,69.4c0-21,15.5-38,35.1-42.6c-3.3-0.8-7.6-1.9-11.2-1.9c-24.6,0-45.4,19.7-45.4,44.3
	c0,24.6,20.8,44.7,45.4,44.7c3.5,0,7.1-1.3,10.4-2.1C55.5,107.2,40.7,90.4,40.7,69.4z"/>
<path id="white_circle_stroke" class="st10" d="M108.9,69.4c-0.1,24.9-20.6,45.2-45.3,45.1c-24.9-0.1-45.2-20.5-45.1-45.2
	C18.6,44.3,39,24,63.8,24.1C88.8,24.2,109,44.6,108.9,69.4z"/>
<path id="arrows_shadow" class="st11" d="M63.8,84c-6.8,0-11.7-6.9-9.3-13.3c0.4-1,0.2-1.6-0.6-2.4c-3-2.9-5.9-5.8-8.8-8.8
	c-0.7-0.7-1.3-1.8-1.3-2.8c0-0.8,0.8-1.8,1.6-2.4c0.9-0.7,2.1-0.5,3,0.3c1,0.8,1.9,1.8,2.9,2.7c2.3,2.3,4.6,4.5,6.8,6.8
	c0.7,0.8,1.4,1,2.4,0.5c2.2-0.9,4.5-0.9,6.7,0c0.9,0.4,1.5,0.3,2.3-0.5c6.3-6.3,12.6-12.6,18.9-18.9c1.9-1.9,3.6-2.2,4.9-0.9
	c1.4,1.3,1.1,3.1-0.9,5c-6.3,6.3-12.6,12.6-18.9,18.9c-0.7,0.7-0.8,1.2-0.5,2.1C75.5,77.1,70.7,84.1,63.8,84z M67.8,74.2
	c0-2.3-1.7-4-3.9-4c-2.2,0-4,1.7-4,3.9c0,2.3,1.7,4,3.9,4C66,78.1,67.8,76.4,67.8,74.2z"/>
<linearGradient id="arrows_1_" gradientUnits="userSpaceOnUse" x1="42.7557" y1="62.4308" x2="93.0001" y2="62.4308">
	<stop  offset="0.2078" style="stop-color:#F6EB56"/>
	<stop  offset="0.5127" style="stop-color:#FDDF6B"/>
	<stop  offset="0.879" style="stop-color:#E9A854"/>
</linearGradient>
<path id="arrows" class="st12" d="M62.7,82.6c-6.8,0-11.7-6.9-9.3-13.3c0.4-1,0.2-1.6-0.6-2.4c-3-2.9-5.9-5.8-8.8-8.8
	c-0.7-0.7-1.3-1.8-1.3-2.8c0-0.8,0.8-1.8,1.6-2.4c0.9-0.7,2.1-0.5,3,0.3c1,0.8,1.9,1.8,2.9,2.7c2.3,2.3,4.6,4.5,6.8,6.8
	c0.7,0.8,1.4,1,2.4,0.5c2.2-0.9,4.5-0.9,6.7,0c0.9,0.4,1.5,0.3,2.3-0.5c6.3-6.3,12.6-12.6,18.9-18.9c1.9-1.9,3.6-2.2,4.9-0.9
	c1.4,1.3,1.1,3.1-0.9,5C85,54.5,78.7,60.8,72.4,67c-0.7,0.7-0.8,1.2-0.5,2.1C74.4,75.6,69.6,82.6,62.7,82.6z M66.6,72.7
	c0-2.3-1.7-4-3.9-4c-2.2,0-4,1.7-4,3.9c0,2.3,1.7,4,3.9,4C64.8,76.6,66.6,74.9,66.6,72.7z"/>
<rect id="top_link" x="62.7" y="8.3" class="st13" width="2.1" height="5.9"/>
<path id="top" class="st14" d="M68.9,8.3H58.6c-0.7-2.6,0-5.3,1.9-6.7c1.8-1.3,3.7-1.5,5.7-0.4C68.5,2.4,69.3,4.6,68.9,8.3z"/>
<g id="highlights_5_">
	<g>
		<g>
			<path class="st15" d="M64.1,1.9C64.1,1.9,64.1,1.9,64.1,1.9c0-0.7-1-0.7-1,0c0,0,0,0,0,0C63.1,2.5,64.1,2.5,64.1,1.9L64.1,1.9z"
				/>
		</g>
	</g>
	<g>
		<g>
			<path class="st15" d="M62.2,2.1c-1.6,0.4-2.7,2.4-2.8,4c0,0.6,1,0.6,1,0c0-1.1,0.9-2.7,2.1-3C63,2.9,62.8,1.9,62.2,2.1L62.2,2.1z
				"/>
		</g>
	</g>
	<g>
		<g>
			<path class="st15" d="M50.1,36.8c3.9,0,3.9-6,0-6C46.3,30.8,46.3,36.8,50.1,36.8L50.1,36.8z"/>
		</g>
	</g>
	<g>
		<g>
			<path class="st15" d="M31.3,66.4c0.3-10.3,6.5-19.2,13.9-25.8c2.9-2.6-1.4-6.8-4.2-4.2c-8.7,7.7-15.3,18.2-15.7,30
				C25.2,70.2,31.2,70.2,31.3,66.4L31.3,66.4z"/>
		</g>
	</g>
	<g>
		<g>
			<path class="st15" d="M81.1,103.8c0-0.1,0-0.2,0-0.2c0-1.6-1.4-3.1-3-3c-1.6,0.1-3,1.3-3,3c0,0.1,0,0.2,0,0.2c0,1.6,1.4,3.1,3,3
				C79.7,106.7,81.1,105.5,81.1,103.8L81.1,103.8z"/>
		</g>
	</g>
	<g>
		<g>
			<path class="st15" d="M87.8,100.1c3.8-4.1,7.6-8.3,10.3-13.3c2.6-4.8,3.5-10,4.1-15.4c0.4-3.8-5.6-3.8-6,0
				c-1.2,10.3-5.8,17-12.7,24.4C81,98.7,85.2,103,87.8,100.1L87.8,100.1z"/>
		</g>
	</g>
	<g>
		<g>
			<path class="st15" d="M6.3,25.1C4.2,29.2,3.7,33.7,5,38.1c0.7,2.5,4.6,1.4,3.9-1.1c-1-3.4-0.7-6.7,0.9-9.9
				C10.9,24.9,7.5,22.8,6.3,25.1L6.3,25.1z"/>
		</g>
	</g>
	<g>
		<g>
			<path class="st15" d="M117.3,27.2c1.6,3.1,1.9,6.5,0.9,9.9c-0.7,2.5,3.1,3.5,3.9,1.1c1.3-4.4,0.8-8.9-1.4-12.9
				C119.5,22.8,116.1,24.9,117.3,27.2L117.3,27.2z"/>
		</g>
	</g>
	<g>
		<g>
			<path class="st15" d="M13,116.7c-1,1.4-1.9,2.7-2.9,4.1c-0.7,1.1,1,2.1,1.7,1c1-1.4,1.9-2.7,2.9-4.1
				C15.4,116.7,13.7,115.7,13,116.7L13,116.7z"/>
		</g>
	</g>
	<g>
		<g>
			<path class="st15" d="M117.2,120.8c-1-1.4-1.9-2.7-2.9-4.1c-0.7-1-2.5,0-1.7,1c1,1.4,1.9,2.7,2.9,4.1
				C116.2,122.8,118,121.8,117.2,120.8L117.2,120.8z"/>
		</g>
	</g>
</g>
</svg>
