<?xml version="1.0" encoding="utf-8"?>
<!-- Generator: Adobe Illustrator 22.1.0, SVG Export Plug-In . SVG Version: 6.00 Build 0)  -->
<svg version="1.1" id="mail" xmlns="http://www.w3.org/2000/svg" xmlns:xlink="http://www.w3.org/1999/xlink" x="0px" y="0px"
	 viewBox="0 0 138.2 116.7" style="enable-background:new 0 0 138.2 116.7;" xml:space="preserve">
<style type="text/css">
	.Drop_x0020_Shadow{fill:none;}
	.Round_x0020_Corners_x0020_2_x0020_pt{fill:#FFFFFF;stroke:#201600;stroke-miterlimit:10;}
	.Live_x0020_Reflect_x0020_X{fill:none;}
	.Bevel_x0020_Soft{fill:url(#SVGID_1_);}
	.Dusk{fill:#FFFFFF;}
	.Foliage_GS{fill:#FBDB44;}
	.Pompadour_GS{fill-rule:evenodd;clip-rule:evenodd;fill:#73ACE1;}
	.st0{opacity:0.59;fill:#2E2E2E;}
	.st1{fill:url(#envelope_inside_1_);stroke:#232323;stroke-width:0.5;stroke-miterlimit:10;}
	.st2{fill:#FCFCFC;stroke:#000000;stroke-width:0.5;stroke-miterlimit:10;}
	.st3{opacity:0.49;}
	.st4{fill:#DBDBDD;}
	.st5{fill:url(#envelope_left_part_1_);stroke:#232323;stroke-width:0.5;stroke-miterlimit:10;}
	.st6{fill:url(#envelope_right_part_1_);stroke:#232323;stroke-width:0.5;stroke-miterlimit:10;}
	.st7{fill:url(#envelope_bottom_part_1_);stroke:#232323;stroke-width:0.5;stroke-miterlimit:10;}
	.st8{fill:#36B3EA;}
	.st9{font-family:'TimesNewRomanPS-BoldItalicMT';}
	.st10{font-size:34.8023px;}
	.st11{fill:#FCFCFC;}
	.st12{opacity:0.71;fill:none;stroke:#000000;stroke-width:1.5;stroke-linecap:round;stroke-miterlimit:10;}
</style>
<linearGradient id="SVGID_1_" gradientUnits="userSpaceOnUse" x1="-327.6069" y1="-247.7382" x2="-326.8998" y2="-247.0311">
	<stop  offset="0" style="stop-color:#DCDDE3"/>
	<stop  offset="0.1783" style="stop-color:#D8D9DF"/>
	<stop  offset="0.3611" style="stop-color:#CCCDD3"/>
	<stop  offset="0.546" style="stop-color:#B7B9BE"/>
	<stop  offset="0.7324" style="stop-color:#9A9DA1"/>
	<stop  offset="0.9181" style="stop-color:#76797D"/>
	<stop  offset="1" style="stop-color:#63676A"/>
</linearGradient>
<path id="mail_shadow" class="st0" d="M138.2,48.9c0,0.2,0,0.5,0,0.7v53.6c0,3.1-1.1,5.9-2.8,8.1c0,0.1-0.1,0.1-0.1,0.2
	c-2.4,3.2-6,5.2-10.1,5.2H16.4c-4.1,0-7.7-2-10.1-5.2c0-0.1-0.1-0.1-0.1-0.2c-1.8-2.2-2.8-5.1-2.8-8.1V49.7c0-0.2,0-0.5,0-0.7l0,0
	c0-7.2,5.8-13.1,13.1-13.1h5.2V17.5c0-7.6,6.2-13.8,13.8-13.8h70.3c7.6,0,13.8,6.2,13.8,13.8v18.4h5.8
	C132.4,35.9,138.2,41.7,138.2,48.9L138.2,48.9z"/>
<linearGradient id="envelope_inside_1_" gradientUnits="userSpaceOnUse" x1="0.25" y1="55.6177" x2="135.1735" y2="55.6177">
	<stop  offset="1.504407e-02" style="stop-color:#F6ED54"/>
	<stop  offset="0.1725" style="stop-color:#F7C675"/>
	<stop  offset="0.8534" style="stop-color:#F7C973"/>
	<stop  offset="0.9814" style="stop-color:#F6EB56"/>
</linearGradient>
<path id="envelope_inside" class="st1" d="M135.2,45.5L135.2,45.5L93.6,71.1l-0.9,0.6c-15.3,9.4-34.6,9.4-49.9,0l-0.9-0.6L0.3,45.5
	l0,0c0-7.2,5.8-13.1,13.1-13.1h108.8C129.3,32.4,135.2,38.3,135.2,45.5z"/>
<path id="letter_1_" class="st2" d="M103.9,103.6H30.9c-6.8,0-12.4-5.6-12.4-12.4V12.6c0-6.8,5.6-12.4,12.4-12.4h73.1
	c6.8,0,12.4,5.6,12.4,12.4v78.6C116.3,98,110.7,103.6,103.9,103.6z"/>
<g id="sahadow" class="st3">
	<g>
		<path class="st4" d="M18.9,60.5c7.2,3.7,14.9,7,20.8,12.7c0.9,0.9,2.5,1.2,3.6,0.5c1-0.7,1.5-1.5,1.6-2.7c0-0.2,0.1-1.3,0-1.4
			c0.7,0.5-4.1,2.1-0.8,1.7c1.9-0.2,4.3-2.2,6.1-3c3-1.3,6.2-2.4,9.5-3.2c11.6-2.8,23.4-0.3,32.3,7.8c0.9,0.8,2.5,1.2,3.6,0.5
			c6.6-4.6,13.1-9.2,19.7-13.8c3.1-2.2,0.1-7.4-3-5.2c-6.6,4.6-13.1,9.2-19.7,13.8c1.2,0.2,2.4,0.3,3.6,0.5
			c-9-8.3-20.8-11.9-32.9-10.3c-7,0.9-13,3.6-19.4,6.3c-3.5,1.5-4.9,2.1-5,6.2c0.5-0.9,1-1.7,1.5-2.6c0,0-0.1,0.1-0.1,0.1
			c1.2,0.2,2.4,0.3,3.6,0.5c-6.3-6.1-14.3-9.7-22-13.7C18.5,53.6,15.5,58.8,18.9,60.5L18.9,60.5z"/>
	</g>
</g>
<linearGradient id="envelope_left_part_1_" gradientUnits="userSpaceOnUse" x1="-7.4689" y1="69.8218" x2="37.6761" y2="84.1875">
	<stop  offset="0.1623" style="stop-color:#F7D16F"/>
	<stop  offset="0.3791" style="stop-color:#F6ED54"/>
	<stop  offset="0.6567" style="stop-color:#F6EB56"/>
	<stop  offset="0.8711" style="stop-color:#F7D374"/>
</linearGradient>
<path id="envelope_left_part" class="st5" d="M41.8,71.1L0.2,99.1V46.2c0-0.2,0-0.5,0-0.7L41.8,71.1z"/>
<linearGradient id="envelope_right_part_1_" gradientUnits="userSpaceOnUse" x1="97.0919" y1="60.1671" x2="142.9126" y2="74.7478">
	<stop  offset="0.1623" style="stop-color:#F7D16F"/>
	<stop  offset="0.3791" style="stop-color:#F6ED54"/>
	<stop  offset="0.6567" style="stop-color:#F6EB56"/>
	<stop  offset="0.8711" style="stop-color:#F7D374"/>
</linearGradient>
<path id="envelope_right_part" class="st6" d="M135.2,46.2v52.9L93.6,71.1l41.6-25.7C135.2,45.7,135.2,46,135.2,46.2z"/>
<linearGradient id="envelope_bottom_part_1_" gradientUnits="userSpaceOnUse" x1="7.3636" y1="76.7135" x2="130.5766" y2="115.9215">
	<stop  offset="0.1623" style="stop-color:#F7D16F"/>
	<stop  offset="0.3791" style="stop-color:#F6ED54"/>
	<stop  offset="0.6567" style="stop-color:#F6EB56"/>
	<stop  offset="0.8711" style="stop-color:#F7D374"/>
</linearGradient>
<path id="envelope_bottom_part" class="st7" d="M135.2,99.1c0,3.4-1.1,6.4-2.8,8.9c0,0.1-0.1,0.1-0.1,0.2c-2.4,3.2-6,5.2-10.1,5.2
	H13.3c-4.1,0-7.7-2-10.1-5.2c0-0.1-0.1-0.1-0.1-0.2c-1.8-2.4-2.8-5.5-2.8-8.9l41.6-27.9l0.9-0.6c15.3-10.3,34.6-10.3,49.9,0l0.9,0.6
	L135.2,99.1z"/>
<text transform="matrix(1 0 0 1 52.9893 96.8674)" class="st8 st9 st10">@</text>
<g id="white_dot_1_">
	<g>
		<path class="st11" d="M10.6,63c3.9,0,3.9-6,0-6C6.7,57,6.7,63,10.6,63L10.6,63z"/>
	</g>
</g>
<g id="white_line_1_">
	<g>
		<path class="st11" d="M6.4,70.6c0,5.4,0,10.7,0,16.1c0,3.9,6,3.9,6,0c0-5.4,0-10.7,0-16.1C12.4,66.7,6.4,66.7,6.4,70.6L6.4,70.6z"
			/>
	</g>
</g>
<line id="letter_line_4" class="st12" x1="37" y1="40.1" x2="70.8" y2="40.1"/>
<line id="letter_line_3" class="st12" x1="37" y1="32.4" x2="83.1" y2="32.4"/>
<line id="letter_line_2" class="st12" x1="37" y1="24.7" x2="91.6" y2="24.7"/>
<line id="letter_line_1" class="st12" x1="37" y1="17" x2="97.8" y2="17"/>
</svg>
