<?xml version="1.0" encoding="utf-8"?>
<!-- Generator: Adobe Illustrator 22.1.0, SVG Export Plug-In . SVG Version: 6.00 Build 0)  -->
<svg version="1.1" id="photocamera" xmlns="http://www.w3.org/2000/svg" xmlns:xlink="http://www.w3.org/1999/xlink" x="0px"
	 y="0px" viewBox="0 0 137.5 97.1" style="enable-background:new 0 0 137.5 97.1;" xml:space="preserve">
<style type="text/css">
	.Drop_x0020_Shadow{fill:none;}
	.Round_x0020_Corners_x0020_2_x0020_pt{fill:#FFFFFF;stroke:#201600;stroke-miterlimit:10;}
	.Live_x0020_Reflect_x0020_X{fill:none;}
	.Bevel_x0020_Soft{fill:url(#SVGID_1_);}
	.Dusk{fill:#FFFFFF;}
	.Foliage_GS{fill:#FBDB44;}
	.Pompadour_GS{fill-rule:evenodd;clip-rule:evenodd;fill:#73ACE1;}
	.st0{opacity:0.59;fill:#2E2E2E;}
	.st1{fill:#020844;}
	.st2{fill:#DBDBDD;}
	.st3{fill:#FFFFFF;stroke:#201600;stroke-miterlimit:10;}
	.st4{fill:url(#blue_part_fill_1_);}
	.st5{fill:none;stroke:#2B2B2B;stroke-miterlimit:10;}
	.st6{fill:url(#yellow_part_fill_1_);}
	.st7{fill:none;stroke:#232323;stroke-width:0.5;stroke-miterlimit:10;}
	.st8{opacity:0.6;fill:#022933;}
	.st9{fill:#022544;}
	.st10{fill:none;stroke:#201600;stroke-miterlimit:10;}
	.st11{opacity:0.36;fill:#22A4FF;stroke:#201600;stroke-miterlimit:10;}
	.st12{opacity:0.36;fill:#22A4FF;}
	.st13{opacity:0.85;fill:#FFFFFF;}
	.st14{fill:#FCFCFC;stroke:#000000;stroke-width:0.15;stroke-miterlimit:10;}
	.st15{fill:#FCFCFC;}
</style>
<linearGradient id="SVGID_1_" gradientUnits="userSpaceOnUse" x1="-328.4638" y1="-257.5889" x2="-327.7567" y2="-256.8818">
	<stop  offset="0" style="stop-color:#DCDDE3"/>
	<stop  offset="0.1783" style="stop-color:#D8D9DF"/>
	<stop  offset="0.3611" style="stop-color:#CCCDD3"/>
	<stop  offset="0.546" style="stop-color:#B7B9BE"/>
	<stop  offset="0.7324" style="stop-color:#9A9DA1"/>
	<stop  offset="0.9181" style="stop-color:#76797D"/>
	<stop  offset="1" style="stop-color:#63676A"/>
</linearGradient>
<path id="flash_shadow" class="st0" d="M82.1,26.7h-24L53.6,7.1c-0.4-1.6,0.8-3,2.4-3H84c1.6,0,2.8,1.5,2.4,3L82.1,26.7z"/>
<path id="main_carcas_shadow" class="st0" d="M116.8,97.1H23.5C12,97.1,2.7,87.8,2.7,76.3V36.6c0-11.5,9.3-20.8,20.8-20.8h93.3
	c11.5,0,20.8,9.3,20.8,20.8v39.7C137.5,87.8,128.2,97.1,116.8,97.1z"/>
<path id="button_left" class="st1" d="M30.4,18.5h-5c-1.5,0-2.7-1.2-2.7-2.7v-6c0-1.5,1.2-2.7,2.7-2.7h5c1.5,0,2.7,1.2,2.7,2.7v6
	C33.1,17.3,31.9,18.5,30.4,18.5z"/>
<path id="button_right" class="st1" d="M110.5,18.5h-7.4c-1.5,0-2.7-1.2-2.7-2.7v-3.2c0-1.5,1.2-2.7,2.7-2.7h7.4
	c1.5,0,2.7,1.2,2.7,2.7v3.2C113.2,17.3,112,18.5,110.5,18.5z"/>
<path id="flash_frame" class="st1" d="M79.9,22.6h-24L51.4,3c-0.4-1.6,0.8-3,2.4-3h27.9c1.6,0,2.8,1.5,2.4,3L79.9,22.6z"/>
<path id="flash_white" class="st2" d="M77.9,20.7H57.9L54.2,4.4c-0.3-1.3,0.7-2.5,2-2.5h23.2c1.3,0,2.3,1.2,2,2.5L77.9,20.7z"/>
<path id="main_frame" class="st3" d="M114.6,92.9H21.3c-11.5,0-20.8-9.3-20.8-20.8V32.5c0-11.5,9.3-20.8,20.8-20.8h93.3
	c11.5,0,20.8,9.3,20.8,20.8v39.7C135.3,83.6,126,92.9,114.6,92.9z"/>
<linearGradient id="blue_part_fill_1_" gradientUnits="userSpaceOnUse" x1="3.0869" y1="52.3455" x2="132.7471" y2="52.3455">
	<stop  offset="3.715945e-02" style="stop-color:#6086C4"/>
	<stop  offset="0.379" style="stop-color:#7CE0FF;stop-opacity:0.9"/>
	<stop  offset="0.6574" style="stop-color:#7AD8FA;stop-opacity:0.9397"/>
	<stop  offset="0.9589" style="stop-color:#6086C4"/>
</linearGradient>
<path id="blue_part_fill" class="st4" d="M112.6,87.7H23.3c-11.1,0-20.2-9-20.2-20.2V37.2c0-11.1,9-20.2,20.2-20.2h89.3
	c11.1,0,20.2,9,20.2,20.2v30.3C132.7,78.6,123.7,87.7,112.6,87.7z"/>
<path id="blue_part_stroke" class="st5" d="M112.6,87.7H23.3c-11.1,0-20.2-9-20.2-20.2V37.2c0-11.1,9-20.2,20.2-20.2h89.3
	c11.1,0,20.2,9,20.2,20.2v30.3C132.7,78.6,123.7,87.7,112.6,87.7z"/>
<linearGradient id="yellow_part_fill_1_" gradientUnits="userSpaceOnUse" x1="3.2637" y1="53.4027" x2="132.5703" y2="53.4027">
	<stop  offset="5.090144e-02" style="stop-color:#F6EB56"/>
	<stop  offset="0.5254" style="stop-color:#E9A854"/>
	<stop  offset="0.923" style="stop-color:#FDDF6B"/>
</linearGradient>
<rect id="yellow_part_fill" x="3.3" y="40.6" class="st6" width="129.3" height="25.7"/>
<rect id="yellow_part_stroke" x="3.3" y="40.6" class="st7" width="129.3" height="25.7"/>
<circle id="lense_button_shadow" class="st8" cx="46.5" cy="79" r="6.1"/>
<circle id="lense_frame_fill_shadow" class="st8" cx="68.4" cy="53.4" r="31.7"/>
<circle id="lense_button" class="st1" cx="44.7" cy="77.5" r="6.1"/>
<circle id="lense_frame_fill" class="st9" cx="66.6" cy="51.9" r="31.7"/>
<circle id="lense_frame_stroke" class="st10" cx="66.6" cy="51.9" r="31.7"/>
<circle id="lense_big" class="st11" cx="66.6" cy="51.9" r="25.2"/>
<circle id="lense_small" class="st12" cx="66.6" cy="51.9" r="16.4"/>
<circle id="highlight_big" class="st13" cx="56.5" cy="37" r="5.8"/>
<circle id="highlight_small" class="st13" cx="76.8" cy="61.9" r="2.7"/>
<path id="lamp_line" class="st14" d="M118.9,28.8h-8.8c-0.3,0-0.6-0.3-0.6-0.6V27c0-0.3,0.3-0.6,0.6-0.6h8.8c0.3,0,0.6,0.3,0.6,0.6
	v1.2C119.5,28.6,119.2,28.8,118.9,28.8z"/>
<path id="lamp_dot" class="st14" d="M106.1,28.8H106c-0.6,0-1.1-0.5-1.1-1.1v-0.1c0-0.6,0.5-1.1,1.1-1.1h0.1c0.6,0,1.1,0.5,1.1,1.1
	v0.1C107.2,28.3,106.7,28.8,106.1,28.8z"/>
<g id="white_dot">
	<g>
		<path class="st15" d="M16.4,32.1c0-0.2,0-0.4,0-0.5c0-1.6-1.4-3.1-3-3c-1.6,0.1-3,1.3-3,3c0,0.2,0,0.4,0,0.5c0,1.6,1.4,3.1,3,3
			C15,35,16.4,33.8,16.4,32.1L16.4,32.1z"/>
	</g>
</g>
<g id="white_line">
	<g>
		<path class="st15" d="M9.8,45.8c0,4.8,0,9.5,0,14.3c0,3.9,6,3.9,6,0c0-4.8,0-9.5,0-14.3C15.8,42,9.8,41.9,9.8,45.8L9.8,45.8z"/>
	</g>
</g>
</svg>
