<?xml version="1.0" encoding="utf-8"?>
<!-- Generator: Adobe Illustrator 22.1.0, SVG Export Plug-In . SVG Version: 6.00 Build 0)  -->
<svg version="1.1" id="placeholder" xmlns="http://www.w3.org/2000/svg" xmlns:xlink="http://www.w3.org/1999/xlink" x="0px"
	 y="0px" viewBox="0 0 89.7 126.8" style="enable-background:new 0 0 89.7 126.8;" xml:space="preserve">
<style type="text/css">
	.Drop_x0020_Shadow{fill:none;}
	.Round_x0020_Corners_x0020_2_x0020_pt{fill:#FFFFFF;stroke:#201600;stroke-miterlimit:10;}
	.Live_x0020_Reflect_x0020_X{fill:none;}
	.Bevel_x0020_Soft{fill:url(#SVGID_1_);}
	.Dusk{fill:#FFFFFF;}
	.Foliage_GS{fill:#FBDB44;}
	.Pompadour_GS{fill-rule:evenodd;clip-rule:evenodd;fill:#73ACE1;}
	.st0{opacity:0.59;fill:#050505;}
	.st1{fill:url(#SVGID_2_);stroke:#246077;stroke-miterlimit:10;}
	.st2{fill:#18AA2D;}
	.st3{fill:#62BFF9;}
	.st4{fill:url(#main_part_fill_2_);}
	.st5{fill:url(#main_part_stroke_2_);stroke:#000000;stroke-miterlimit:10;}
	.st6{fill:#013B4F;}
	.st7{fill:url(#blue_circle_fill_1_);}
	.st8{opacity:0.61;}
	.st9{fill:#FFFFFF;}
	.st10{fill:none;stroke:#4F9ABF;stroke-width:3;stroke-miterlimit:10;}
	.st11{fill:none;stroke:#4F9ABF;stroke-width:3;stroke-linecap:round;stroke-miterlimit:10;}
</style>
<linearGradient id="SVGID_1_" gradientUnits="userSpaceOnUse" x1="-351.6732" y1="-242.5709" x2="-350.9661" y2="-241.8638">
	<stop  offset="0" style="stop-color:#DCDDE3"/>
	<stop  offset="0.1783" style="stop-color:#D8D9DF"/>
	<stop  offset="0.3611" style="stop-color:#CCCDD3"/>
	<stop  offset="0.546" style="stop-color:#B7B9BE"/>
	<stop  offset="0.7324" style="stop-color:#9A9DA1"/>
	<stop  offset="0.9181" style="stop-color:#76797D"/>
	<stop  offset="1" style="stop-color:#63676A"/>
</linearGradient>
<path id="shadow_4_" class="st0" d="M89.7,112.7c0,7.8-19.2,14.2-42.9,14.2s-42.9-6.3-42.9-14.2c0-6.9,14.9-12.6,34.6-13.9
	C32,88.8,24,76.3,21.9,73c-3.6-5.7-16.7-20.1-10.5-45.2C17,5.1,41.9,2.5,46.4,2.2c0.1,0,0.4,0,0.4,0c0.1,0,0.2,0,0.3,0
	c4.5,0.3,29.4,2.8,35.1,25.6c6.2,25.1-6.9,39.5-10.5,45.2c-2.1,3.3-10.1,15.7-16.5,25.7C74.8,100.1,89.7,105.8,89.7,112.7z"/>
<g id="map">
	<linearGradient id="SVGID_2_" gradientUnits="userSpaceOnUse" x1="0.5" y1="110.9515" x2="86.3636" y2="110.9515">
		<stop  offset="0.1274" style="stop-color:#59A3C4"/>
		<stop  offset="0.9204" style="stop-color:#7CE0FF"/>
	</linearGradient>
	<ellipse class="st1" cx="43.4" cy="111" rx="42.9" ry="14.2"/>
	<g>
		<g>
			<path class="st2" d="M60,101.9c-0.3,0.1-0.5,0.2-0.8,0.3c0.4,0.5,0.8,1,1.2,1.6c0.1-0.1,0.2-0.3,0.3-0.4c0.7-0.9-0.1-2-1.2-1.6
				c-0.2,0.1-0.4,0.2-0.6,0.3c0.4,0.5,0.8,1,1.2,1.6c0.1-0.1,0.3-0.3,0.4-0.4c0.6-0.7,0.2-1.7-0.7-1.7c-0.8-0.1-1.7,0.9-2.3,0.8
				c-0.5-0.1-0.8,0.1-1.1,0.5c-0.5,0.6-1.1-0.4-0.9,0.2c-0.3-0.9-1.6-1-1.9,0c0-0.1-2.3-0.1-2.1-0.1c0.3,0.4,0.6,0.8,1,1.3
				c0.6-0.6,1.2-1.3,1.8-1.9c-0.3-0.6-0.5-1.2-0.8-1.8c-2.2,1-3.2,2.3-2.1,4.5c0.2-0.5,0.4-1,0.6-1.5c-1.6,0.5-3.1,1.1-4.6,1.8
				c0.5,0.3,1,0.6,1.5,0.9c0-0.5,0-1,0-1.5c0-0.4-0.3-0.8-0.7-1c-1.9-0.5-1.5,1.9-2.8,2.5c0.5,0.4,1,0.8,1.5,1.1
				c0-0.1,0-0.1,0.1-0.2c0.4-1.2-1.5-1.7-1.9-0.5c-0.3,0.6-0.7,1.2-1,1.8c-0.4,0.5-0.4,1,0,1.4c1,1.2,2,0.4,2.7-0.6
				c-0.6-0.3-1.2-0.7-1.7-1c-0.1,0.1-0.2,0.3-0.3,0.4c0.6,0.3,1.2,0.7,1.7,1c0.7-1.2,0.7-1.2,1.2-2.5c0.4-1-1-1.6-1.7-1
				c-0.3,0.3-0.6,0.6-0.9,0.9c0.5,0.4,1,0.8,1.6,1.2c0.3-0.4,0.6-0.9,1-1.3c-0.6-0.3-1.2-0.7-1.7-1c-0.4,0.7-0.8,1.4-1.1,2.1
				c-0.5,0.9,0.8,2.1,1.6,1.2c0.5-0.6,1-1.3,1.5-1.9c-0.5-0.4-1-0.8-1.6-1.2c-0.5,0.7-0.9,1.4-1.2,2.2c-0.5,1,0.8,2,1.6,1.2
				c1.1-1.2,1.1-1.1,1.9-2.4c-0.6-0.3-1.2-0.7-1.7-1c-0.4,0.6-0.8,1.2-1.1,1.8c-0.6,1,0.8,2,1.6,1.2c0.3-0.3,0.6-0.6,0.9-0.9
				c-0.5-0.4-1-0.8-1.6-1.2c-0.7,0.4-0.8,0.8-0.4,1.3c-0.3-0.6-1.1-0.6-1.6-0.2c-2.7,2.5,1.8,2.6,3.3,2.6c-0.2-0.6-0.3-1.2-0.5-1.9
				c-0.2,0.1-0.4,0.2-0.5,0.3c-0.8,0.4-0.5,1.6,0.2,1.8c0.1,0,0.2,0.1,0.4,0.1c-0.1-0.6-0.3-1.1-0.4-1.7c-0.1,0.1-0.2,0.2-0.3,0.2
				c-0.7,0.5-0.1,1.8,0.7,1.7c0.8-0.1,1.5-0.1,2.3,0c-0.3-0.4-0.6-0.8-1-1.3c-0.1,0.3-0.1,0.6-0.2,0.9c0.7,0.1,1.3,0.2,2,0.3
				c0-0.6,0-1.2,0-1.9c0-0.8-0.8-1.2-1.5-0.9c0,0-0.1,0-0.1,0.1c-0.5,0.3-0.6,0.9-0.4,1.4c0,0.1,0.1,0.1,0.1,0.2
				c0.4,0.7,1.3,0.6,1.7,0c0.3-0.5,0.4-0.6,0.5-1.2c0.1-0.7-0.4-1.5-1.2-1.2c-0.5,0-0.9,0.1-1.4,0.1c0,0.6,0,1.3,0,1.9
				c0.2-0.1,0.5-0.1,0.7-0.2c-0.2-0.6-0.4-1.3-0.5-1.9c-0.3,0.1-0.5,0.2-0.8,0.3c0.4,0.3,0.8,0.6,1.3,1c0.2-0.6,0.4-1.1,0.6-1.7
				c-0.6-0.3-1.1-0.6-1.7-1c-0.5,1.9,0.5,3.1-0.8,4.7c0.6,0.3,1.2,0.7,1.7,1c1.7-2.5,0.4-2.9-1.7-3.8c0.2,0.5,0.4,1,0.6,1.5
				c0.8-1.3,1.1-2.3,0.9-3.8c-0.1-1.3-2.1-1.3-2,0c0,0.6-0.1,1.4,0.4,1.9c0.5,0.4,1.2,0.4,1.6-0.2c0,0,0,0,0,0
				c-0.6-0.3-1.2-0.5-1.8-0.8c-0.1,0.3,0,3.8,0.2,3.5c-0.8,1-4.5-0.5-5.6-0.5c-1.8,0-5.9,1.6-4.7,4.2c0.1,0.3,0.7,0.7,1,0.9
				c1.5,0.9,1.9,0,3.6,1.4c1.3,1.1,1.5,3.4,2.9,4.1c3.1,1.5,6.6-4.9,8.1-6.2c0.5-0.4,0.4-1.3-0.2-1.6c-1-0.5-1.2-0.5-2.3-0.2
				c-1.3,0.4-0.7,2.2,0.5,1.9c-0.2-0.1-0.4-0.2-0.6-0.2c0.1-0.5,0.2-0.9,0.4-1.4c0.3,0.1,0.6,0.1,0.8,0.2c-0.2,0.4-0.5,0.8-0.7,1.2
				c1.4-0.3,1.7-0.3,2.7-1.2c0.6-0.5,0.2-1.4-0.4-1.7c-0.5-0.2-0.9-0.3-1.4-0.5c-0.1,0.7-0.2,1.3-0.3,2c1.6,0.1,3.1,0.5,4.5,1.2
				c0.2,0.1,0.2,0.7,0.5,0.8c0.6,0.2,0.9,0.3,1.6,0.3c0.2,0,0.3-0.2,0.4-0.3c1.4-0.2,0.6-0.8,2.2-0.6c2.3,0.4,0.4,1.2,2.9,0.7
				c0.6-0.1,0.8-0.7,0.7-1.2c0.1,0.4,2.5-1.2,2.5-1.3c0.7-1,0.6-1.7,0.4-2.8c-0.5,0.4-1,0.8-1.5,1.1c0.5,0.3,0.9,0.6,1.4,0.9
				c0.4,0.3,1.1,0.1,1.4-0.4c0.5-0.9,1.4-1.2,2-1.9c0.2-0.3,0-1.5-0.1-1.4c0.2-0.2,3.8-0.4,4.5-0.5c1.5-0.2,3.1-0.9,4.7-1.1
				c0.9-0.1,1.5-1.3,0.5-1.9c-5-2.7-10.1-1.5-15.5-3.1c0.2,0.4,0.5,0.8,0.7,1.2c0.1-0.2,0.2-0.4,0.2-0.6c0.2-0.5-0.2-1.1-0.7-1.2
				c-2.1-0.7-3.7-0.4-5.5,0.8c-1.1,0.7-0.1,2.4,1,1.7c1.3-0.2,2.7-0.4,4-0.6c-0.2-0.4-0.5-0.8-0.7-1.2c-0.1,0.2-0.2,0.4-0.2,0.6
				c-0.2,0.5,0.2,1.1,0.7,1.2c4.8,1.4,10.6,0.4,15,2.9c0.2-0.6,0.3-1.2,0.5-1.9c-3,0.4-8.6,0.7-11,2.7c-0.3,0.2-0.4,0.7-0.3,1
				c0.6,1.6-0.6,0.5-1.5,2.2c0.5-0.1,0.9-0.2,1.4-0.4c-0.5-0.3-0.9-0.6-1.4-0.9c-0.8-0.5-1.6,0.3-1.5,1.1c0.2,1.6-3.3,1.5-2.9,4.1
				c0.2-0.4,0.5-0.8,0.7-1.2c-0.9,0.2-2.2-1.8-3.5-1.6c-0.7,0.1-1.4,1.2-1.8,1.2c-0.3,0-0.7-1-1.2-1.1c-1.7-0.4-3.3-0.6-5.1-0.7
				c-1.2-0.1-1.3,1.6-0.3,2c0.5,0.2,0.9,0.3,1.4,0.5c-0.1-0.6-0.3-1.1-0.4-1.7c-0.6,0.4-1.2,0.6-1.8,0.7c-0.6,0.1-0.8,0.7-0.7,1.2
				c0.1,0.7,0.3,0.9,0.8,1.2c0.3,0.2,0.7,0.2,1,0c0.1-0.1,0.2-0.1,0.3-0.2c0.4-0.3,0.7-0.9,0.4-1.4c-0.1-0.1-0.1-0.2-0.2-0.3
				c-0.3-0.4-0.7-0.5-1.1-0.5c-0.1,0-0.2,0-0.3,0.1c0.2,0.6,0.4,1.3,0.5,1.9c0.2,0,0.5,0,0.7,0c-0.1-0.5-0.1-1-0.2-1.6
				c-1.5,1.2-2.3,2.7-3.6,4c-2.9,3-1.8-0.3-3-2.1c-0.4-0.5-0.8-1-1.4-1.3c-0.4-0.2-1.1-0.2-1.4-0.4c-0.5,0-1.1,0-1.6,0
				c0.3-1.1,1-1.4,2.1-0.9c1.9-0.1,5.2,1.6,6.8-0.1c1.6-1.7-0.2-2.8,0.2-4.7c0.2-1.1-1.2-1.7-1.8-0.8c0,0,0,0,0,0
				c0.5-0.1,1-0.1,1.6-0.2c0-0.2,0.1-0.3,0.1-0.5c-0.7,0-1.3,0-2,0c-0.2,0.9-0.4,1.9-0.6,2.8c-0.4,0.6,0,1.2,0.6,1.5
				c0.7,0.3,1.1,0.1,0.5,0.9c-0.7,1.1,1,2,1.7,1c0.6-0.8,0.9,0,1.5-1.5c0.5-1.1-0.8-2.6-0.5-3.7c0.2-0.9-1-1.8-1.7-1
				c-1.1,1.3-1,1.3-1.2,3.1c-0.1,0.6,0.7,1.2,1.3,1c0.3-0.1,0.5-0.2,0.8-0.3c1.2-0.4,0.7-2.2-0.5-1.9c-0.2,0.1-0.5,0.1-0.7,0.2
				c-0.9,0.2-1,1.7,0,1.9c1.3,0.3,1.2,0.3,2.5-0.1c-0.4-0.4-0.8-0.8-1.2-1.2c-0.1,0.2-0.2,0.5-0.2,0.7c0.6,0,1.2,0,1.7,0
				c0-0.1-0.1-0.1-0.1-0.2c-0.1,0.5-0.2,0.9-0.4,1.4c0,0,0.1,0,0.1-0.1c-0.5-0.3-1-0.6-1.5-0.9c0,0.6,0,1.2,0,1.9
				c0,1.1,1.7,1.4,2,0.3c0.1-0.3,0.1-0.6,0.2-0.9c0.2-0.7-0.3-1.2-1-1.3c-0.7-0.2-1.5-0.2-2.3,0c0.2,0.6,0.5,1.1,0.7,1.7
				c0.1-0.1,0.2-0.2,0.3-0.2c0.6-0.5,0.2-1.5-0.4-1.7c-0.1,0-0.2-0.1-0.4-0.1c0.1,0.6,0.2,1.2,0.2,1.8c0.2-0.1,0.4-0.2,0.5-0.3
				c0.9-0.4,0.4-1.9-0.5-1.9c-1-0.4-1.6-0.1-1.9,0.8c-0.5-0.1-1-0.1-1.6-0.2c0.3,0.7,0.5,0.9,1.3,1.1c0.3,0.1,0.7,0,1-0.3
				c0.7-0.6,1.1-1.5,1.7-2.2c0.7-0.9-0.8-2-1.6-1.2c-0.3,0.3-0.6,0.6-0.9,0.9c0.5,0.4,1,0.8,1.6,1.2c0.4-0.6,0.8-1.2,1.1-1.8
				c0.7-1.1-1-2.1-1.7-1c-0.5,0.7-1.1,1.3-1.6,2c0.5,0.4,1,0.8,1.6,1.2c0.4-0.7,0.8-1.5,1.2-2.2c0.6-0.9-0.9-2.1-1.6-1.2
				c-0.5,0.6-1,1.3-1.5,1.9c0.5,0.4,1,0.8,1.6,1.2c0.4-0.7,0.8-1.4,1.1-2.1c0.6-1.2-1-2-1.7-1c-0.3,0.4-0.6,0.9-1,1.3
				c-0.7,0.9,0.8,2,1.6,1.2c0.3-0.3,0.6-0.6,0.9-0.9c-0.6-0.3-1.1-0.6-1.7-1c-0.3,0.7-0.7,1.3-1,2c-0.7,1.1,1,2.1,1.7,1
				c0.1-0.1,0.2-0.3,0.3-0.4c0.7-1.1-1-2-1.7-1c1.9-2.5,0.3,3.3,2-1c-0.6-0.2-1.3-0.4-1.9-0.5c0,0.1,0,0.1-0.1,0.2
				c-0.3,0.9,0.7,1.4,1.5,1.1c0.2-0.1,0.4-0.2,0.5-0.4c1.1-1,0-1.1,0-1.4c0,0.8,0.8,1.2,1.5,0.9c1.3-0.6,2.7-1.2,4.2-1.6
				c0.6-0.2,0.9-0.9,0.6-1.5c0.5-0.6,0.9-1.2,1.4-1.8c1-0.5,0.3-2.2-0.8-1.8c-1.9,0.6-2.7,1.3-3.2,3.3c-0.2,0.6,0.3,1.3,1,1.3
				c2.2-0.1,3.2,1.5,4-1.4c-0.6,0-1.3,0-1.9,0c0.1,0.3,0.2,0.6,0.3,0.9c0.1,0.4,0.5,0.7,1,0.7c0.5,0,1.2-0.4,1.6-0.3
				c0.5,0.1,0.8-0.1,1.1-0.5c0.1-0.1,2.2-0.9,2.2-0.9c-0.2-0.6-0.5-1.1-0.7-1.7c-0.1,0.1-0.3,0.3-0.4,0.4c-0.8,0.9,0.2,2,1.2,1.6
				c0.2-0.1,0.4-0.2,0.6-0.3c-0.4-0.5-0.8-1-1.2-1.6c-0.1,0.1-0.2,0.3-0.3,0.4c-0.7,0.9,0.1,2,1.2,1.6c0.3-0.1,0.5-0.2,0.8-0.3
				C62.2,103.1,61.2,101.4,60,101.9L60,101.9z"/>
		</g>
	</g>
	<g>
		<g>
			<path class="st2" d="M64.6,118.7c1-0.7,1.8-1,3.1-1.2c0.2,0,0.6-0.2,0.8-0.1c0.4,0,1.1,0.6,1.5,0.8c-0.2-0.3-0.3-0.6-0.5-0.9
				c0,0.4,0.1,0.6,0.3,0.9c0.1,0.1,0.3,0.2,0.4,0.3c0.3,0.2,0.3,0.1,0-0.3c-0.1,0.1-0.3,0.2-0.4,0.3c-0.1,0.2-0.1,0.2-0.1,0
				c-0.4-0.1-0.6-0.4-1-0.5c-0.4-0.1-0.7,0-1.1,0c-0.3-0.1-0.6-0.2-0.9-0.3c-0.5,0-0.9,0.2-1.4,0.3c-0.2,0.4-0.2,0.4,0-0.1
				c0-0.2,0.1-0.4,0.1-0.6c0.2-1.3-1.8-1.3-2,0c-0.1,0.8-0.6,1.3-0.1,2.1c0.3,0.5,0.8,0.7,1.3,0.8c0.9,0.1,1.7-0.3,2.6-0.2
				c0.3,0,0.7,0,0.9,0.1c0.3,0.1,0.3,0.1,0.7,0.3c1.3,0.7,2.2,0.2,3.1-0.9c0.4-0.4,0.6-1,0.4-1.6c-0.2-0.8-0.8-0.8-1.3-1.2
				c0.2,0.3,0.3,0.6,0.5,0.9c-0.1-1.3-1.9-2.2-3.2-2.1c-1.8,0-3.3,0.6-4.7,1.6C62.5,117.7,63.5,119.4,64.6,118.7L64.6,118.7z"/>
		</g>
	</g>
	<g>
		<g>
			<path class="st2" d="M60.4,115.9c1.8,0.9,3.6,1.4,5.6,1.5c1.3,0.1,1.3-1.9,0-2c-1.6-0.1-3.1-0.5-4.6-1.2
				C60.3,113.6,59.3,115.3,60.4,115.9L60.4,115.9z"/>
		</g>
	</g>
	<g>
		<g>
			<path class="st2" d="M68.2,116.5c0.8,0.2,1.5,0.4,2.3,0.5c0.9,0.1,1.2-1.1,0.7-1.7c0,0-0.1-0.1-0.1-0.1c-0.9-1-2.3,0.5-1.4,1.4
				c0,0,0.1,0.1,0.1,0.1c0.2-0.6,0.5-1.1,0.7-1.7c-0.6-0.1-1.2-0.2-1.8-0.4C67.6,114.2,67,116.1,68.2,116.5L68.2,116.5z"/>
		</g>
	</g>
	<g>
		<g>
			<path class="st2" d="M64.3,115.8c0.1-0.2,0.3-0.3,0.5-0.3c-0.4-0.2-0.8-0.5-1.2-0.7c0.1-0.2,0.1-0.4,0.2-0.5
				c0.3,0,0.5-0.1,0.8-0.1c0,0-0.1,0-0.1,0c0.2,0.2,0.5,0.5,0.7,0.7c0,0,0,0,0-0.1c0,0.2,0,0.4,0,0.5c0,0,0,0,0-0.1
				C64.8,115.4,64.6,115.7,64.3,115.8c0.1,0.1,0.1,0.1,0.1,0.1c1.3-0.3,0.7-2.2-0.5-1.9c-1.1,0.3-1,1.9,0.1,2.1
				c1.1,0.2,1.7-0.9,1.5-1.8c-0.1-0.5-0.7-0.9-1.2-0.7c-0.7,0.2-1.2,0.6-1.7,1.3c-0.3,0.4-0.1,1.1,0.4,1.4
				C63.4,116.5,64,116.3,64.3,115.8L64.3,115.8z"/>
		</g>
	</g>
	<g>
		<g>
			<path class="st2" d="M66,112.9c0.1,0,0.4,0.1,0.4,0.2c0-0.5-0.5-1-1-1c-0.6,0-1,0.5-1,1c-0.1,1.1,1.1,1.9,2.1,1.7
				C67.8,114.6,67.3,112.6,66,112.9L66,112.9z"/>
		</g>
	</g>
	<g>
		<g>
			<path class="st2" d="M28.1,122.1c-0.3-0.4,0.5-1,0.7-1.2c0.2-0.2,0.3-0.3,0.1-0.5c0.2,0,0.4,0,0.6-0.1c0.2-0.1,0.5-0.2,0.6-0.4
				c0.1-0.1,0.2-0.3,0.3-0.4c0.1-0.4,0-0.4-0.2,0.1c0.9-0.1,1-0.4,1.6-0.9c0.3-0.3,0.4-0.1,0.8-0.3c0.2-0.1,0.8-1,1-1.1
				c0.5-0.1,0.9-0.7,0.7-1.2c-0.3-0.9-0.8-1-1.6-1.2c-1.3-0.4-2.1-1.3-3.4-1.6c-1.1-0.2-2.4-0.4-3.5,0c-0.4,0.2-0.8,0.4-1.1,0.8
				c-0.2,0.2-0.5,0.7-0.3,0.6c-0.9,0.2-0.9,1.4-0.2,1.8c0.3,0.2,0.7,0.7,1.1,0.7c0.2,0.3,0.3,0.2,0.4-0.2c0.2-0.4,0.2-0.5,0-0.3
				c-0.3,0.4-0.4,0.8-0.2,1.2c0.3,0.7,0,1.9-0.1,3c-0.1,1,0.2,1.8,1.1,2.3c0.8,0.4,1.7-0.3,1.5-1.1c0-0.1-0.1-0.3-0.1-0.4
				c-0.3-1.2-2.3-0.7-1.9,0.5c0,0.1,0.1,0.3,0.1,0.4c0.5-0.4,1-0.8,1.5-1.1c-0.3-0.2,0.2-2.8,0.2-3.1c0-0.7-0.2-0.9-0.5-1.5
				c-0.1,0.4-0.1,0.8-0.2,1.2c1.4-1.6-0.7-2.5-1.9-3.4c-0.1,0.6-0.2,1.2-0.2,1.8c0.6-0.1,0.7-0.4,1.1-0.8c0.5-0.5-0.3-0.5,0.8-0.7
				c0.4-0.1,1,0,1.4,0.1c1,0.1,1.4,0.8,2.2,1.3c0.2,0.1,1.9,0.8,1.7,0.2c0.2-0.4,0.5-0.8,0.7-1.2c-0.8,0.2-0.8,0.6-1.4,1
				c-0.4,0.3-0.9,0.3-1.4,0.7c-0.2,0.2-0.2,0.4-0.4,0.5c-0.2,0.1-0.5,0.1-0.6,0.2c-0.5,0.3-0.5,0.6-0.8,1.1c0.2-0.4,0.8-0.6,0-0.4
				c-0.2,0-0.4,0.1-0.6,0.3c-0.5,0.3-0.7,0.8-1.2,1.2c-0.9,0.8-1.2,2.1-0.4,3.1C27.1,124.1,28.8,123.1,28.1,122.1L28.1,122.1z"/>
		</g>
	</g>
	<g>
		<g>
			<path class="st2" d="M25.4,113.6c-1-0.8-1.7-1.1-3-1.4c-1-0.2-2-0.2-3-0.7c-1.9-0.9-2.8-2.9-4.2-4.4c-0.5-0.6-1-1.3-1.8-1.7
				c-0.4-0.2-3.6-0.2-3.4,0.3c0.3,0.7,2.5-0.2,3-0.3c1.7-0.3,2.7-0.2,4.3-0.2c0.4,0,0.9,0.2,1.3,0.2c-0.3,0,2.1-0.3,2.1-0.3
				c1.2,0.3,0.4-0.2,0.7,0.9c0.3,1.2-0.7,1.4,0.4,2.4c0.6,0.6,2.3,1,3.2,0.6c0.7-0.3,0.6-0.7,1.1-1.1c1-0.7-1.1,0-0.3-0.1
				c-0.4,0,1,0.4,1,0.4c0.3,0.3,0.9-0.8-0.4-0.3c-0.6,0.2-1,0.7-1.5,1c-1.3,0.7-3.6,1.2-4.6,2.5c-0.2,0.3-0.4,0.6-0.3,1
				c0.1,0.1,0.1,0.3,0.2,0.4c0.5,1.2,2.4,0.7,1.9-0.5c0.4,0.9,6.9-2.7,7.4-3.4c0.3-0.3,0.4-0.8,0.2-1.2c-0.9-1.4-3.6-2.8-5.2-1.9
				c-0.4,0.2-0.6,0.7-0.5,1.1c0.6,0.1,0.7,0.1,0.3,0c-0.3-0.1-0.6-0.1-0.9,0c-0.1-0.9,0.8-1.4,0.6-2.4c-0.2-0.8-0.9-1.4-1.7-1.6
				c-1.1-0.3-3.5,0.5-4.3,0.4c-1-0.1-2.1-0.7-3.2-0.7c-0.6,0-7.5,1.4-5.3,0.9c-0.5,0.1-1.1-0.1-1.6,0.2c-2.8,1.9-1,3.7,1.6,4.2
				c0.4,0,0.8-0.1,1.1-0.3c1.3,0.6,2.6,1.1,3.9,1.7c0.9,0.7,1.4,2.1,2.2,2.9c2.2,1.9,5.3,1,7.3,2.8
				C24.9,115.9,26.4,114.4,25.4,113.6L25.4,113.6z"/>
		</g>
	</g>
	<g>
		<g>
			<path class="st2" d="M15.9,101.7c-0.2,0.1-0.4,0.2-0.6,0.3c0.4,0.5,0.8,1,1.2,1.6c0.1-0.1,0.2-0.2,0.3-0.3
				c-0.5-0.1-1-0.1-1.6-0.2c0.2,0.4,0.5,0.7,0.9,0.9c0.3,0.1,1,0.2,1,0.1c-0.2-0.2-0.3-0.4-0.5-0.6c0.4,0.9,0.9,0.9,1.7,0.9
				c-0.3-0.2-0.6-0.3-0.9-0.5c0,0.1,0.1,0.1,0.1,0.2c0.3,0.4,0.9,0.7,1.4,0.4c0.3-0.2,0.6-0.4,0.8-0.6c-0.4-0.1-0.8-0.1-1.2-0.2
				c0-0.1,0-0.1,0-0.2c-0.2,0.6,0.3,1.3,1,1.3c1.2,0,1.9-0.8,2-1.9c-0.6,0.2-1.2,0.3-1.9,0.5c1,1.3,2.4,1.2,2.9-0.3
				c-0.5,0.2-1,0.4-1.5,0.6c0.1,0.1,0.1,0.2,0.2,0.2c0.3,1.2,2.2,0.7,1.9-0.5c-0.2-0.7-0.5-1.1-1.1-1.4c-0.6-0.3-1.3,0-1.5,0.6
				c-0.1,0.2-0.3,0.5-0.1,0.3c0.2-0.2,0.4-0.3,0.6-0.5c0.1,0,0.2,0,0.3,0c-0.6-0.8-1.7-0.5-1.9,0.5c0,0,0,0,0-0.1
				c0.3,0.4,0.6,0.8,1,1.3c0.2-0.7,0.1-1.3-0.5-1.8c-0.3-0.3-0.8-0.4-1.2-0.2c-0.3,0.2-0.6,0.4-0.8,0.6c0.5,0.1,0.9,0.2,1.4,0.4
				c-0.5-0.7-1-0.5-1.4-0.6c0.2,0.2,0.5,0.5,0.7,0.7c-0.1-0.4-0.3-0.6-0.6-0.8c-0.2-0.1-1-0.1-1.1-0.3c-0.3-0.6-1.1-0.6-1.6-0.2
				c-0.1,0.1-0.2,0.2-0.3,0.3c-0.9,0.8,0.2,2,1.2,1.6c0.2-0.1,0.4-0.2,0.6-0.3C18.1,102.9,17.1,101.2,15.9,101.7L15.9,101.7z"/>
		</g>
	</g>
	<g>
		<g>
			<path class="st2" d="M24.2,104.1c0.1-0.3,0.1-0.6,0.1-0.9c-0.4,0.3-0.8,0.6-1.3,1c0,0,0.1,0,0.1,0c-0.2-0.2-0.4-0.3-0.6-0.5
				c0.5,0.7,1.4,1.1,2.1,0.3c0.7-0.8,0.2-1.7-0.5-2.2c-1-0.7-2,0.8-1.2,1.6C23.1,103.6,23.8,104.1,24.2,104.1
				C24.3,104.1,24.3,104.1,24.2,104.1C24.1,103.9,24.1,103.9,24.2,104.1c0,0.3,0.2,0.5,0.3,0.7c0.4,0.4,0.9,0.5,1.4,0.5
				c0.1,0,0.5,0.1,0.6,0c0.1-0.7,0-0.9-0.3-0.6c-0.2,0.1-0.2,0.2,0.1,0.2c-0.2,0.6-0.3,1.2-0.5,1.9c0.3,0,0.5-0.1,0.7-0.2
				c1-0.7,0-2.5-1-1.7c0.1,0,0.2,0,0.3-0.1c-1,0-1.3,1.3-0.5,1.9c1.5,1,4-1.3,2.6-2.7c-0.3-0.3-0.7-0.4-1-0.5c-0.2,0-0.5,0-0.7-0.1
				c-0.4,0,0,0.2-0.2-0.1c-0.2-0.3-0.3-0.6-0.7-0.8c-0.3-0.2-0.7-0.2-0.9-0.4c-0.4,0.5-0.8,1-1.2,1.6c0,0,0,0,0,0.1
				c0-0.3-0.1-0.5-0.1-0.8c0,0,0-0.1,0.1-0.1c0.2-0.1,0.5-0.2,0.7-0.3c-0.1,0-0.1,0-0.2,0c0.2,0.1,0.5,0.2,0.7,0.3
				c-0.2-0.3-0.4-0.4-0.7-0.5c-0.6-0.1-1.3,0.3-1.3,1c0,0.1,0,0.3-0.1,0.4C21.9,104.8,23.9,105.3,24.2,104.1L24.2,104.1z"/>
		</g>
	</g>
	<g>
		<g>
			<path class="st2" d="M51.7,108.5c0.6-0.8,1.2-1.6,1.9-2.3c0.7-0.9-0.1-2-1.2-1.6c-0.9,0.3-1.7,0.8-2.5,1.4c0.4,0.5,0.8,1,1.2,1.6
				c0.5-0.5,0.9-1,1.4-1.5c0.8-0.8-0.3-2.3-1.2-1.6c-0.9,0.6-1.8,1.3-2.6,1.9c0.4,0.5,0.8,1,1.2,1.6c0.5-0.4,1-0.8,1.5-1.2
				c-0.5-0.5-0.9-0.9-1.4-1.4c-0.3,0.3-0.5,0.6-0.8,1c-0.7,0.9,0.1,2.1,1.2,1.6c1.8-0.9,3.5-1.7,5.3-2.6c-0.4-0.5-0.8-1-1.2-1.6
				c-1.6,1.3-3.3,2.7-4.9,4c-0.9,0.7,0.3,2.2,1.2,1.6c2-1.3,4-2.5,5.9-3.8c-0.3-0.6-0.7-1.2-1-1.7c-2.5,1.6-4.8,3.3-7,5.2
				c-0.9,0.7,0.3,2.2,1.2,1.6c2.1-1.5,4.2-3,6.3-4.4c1-0.7,0.1-2.5-1-1.7c-2.2,1.5-4.3,3.2-6.2,5.1c-0.8,0.8,0.3,2.2,1.2,1.6
				c2.2-1.5,4.3-3,6.5-4.5c-0.4-0.5-0.8-1-1.2-1.6c-1.7,1.6-3.5,3.3-5.2,4.9c-0.8,0.8,0.3,2.2,1.2,1.6c1.8-1.3,3.6-2.6,5.4-3.9
				c-0.4-0.5-0.8-1-1.2-1.6c-1.6,1.3-3.2,2.7-4.7,4.2c-0.9,0.9,0.5,2.3,1.4,1.4c1.4-1.2,2.8-2.3,4.4-3.4c-0.4-0.5-0.8-1-1.2-1.6
				c-0.9,0.8-1.8,1.7-2.6,2.5c-0.8,0.8,0.2,2.1,1.2,1.6c1.3-0.7,2.5-1.4,3.8-2c-0.4-0.5-0.8-1-1.2-1.6c-1,1.1-2,2.2-3,3.3
				c-0.9,1,0.4,2.2,1.4,1.4c1-0.8,2.1-1.6,3.1-2.5c0.9-0.7-0.3-2.2-1.2-1.6c-1.3,0.9-2.5,1.8-3.8,2.6c0.4,0.5,0.8,1,1.2,1.6
				c0.6-0.8,1.3-1.6,1.9-2.4c0.7-0.9-0.1-2.1-1.2-1.6c-1.6,0.8-1.3,0.6-2.7,1.8c-0.9,0.7,0.2,2.1,1.2,1.6c1.1-0.7,2.2-1.3,3.4-1.7
				c-0.4-0.5-0.8-1-1.1-1.5c-0.6,0.8-1.2,1.7-1.8,2.5c-0.6,0.9,0.5,1.8,1.4,1.4c0.9-0.5,1.9-1,2.8-1.5c-0.5-0.5-0.9-0.9-1.4-1.4
				c-0.4,0.5-0.8,1-1.2,1.5c-0.8,0.9,0.2,2,1.2,1.6c0.4-0.2,0.7-0.3,1.1-0.5c-0.4-0.5-0.8-1-1.2-1.6c-0.4,0.5-0.8,0.9-1.1,1.4
				c-0.7,0.8,0.2,2.3,1.2,1.6c0.8-0.5,1.6-1.1,2.3-1.6c-0.5-0.5-0.9-0.9-1.4-1.4c-0.2,0.2-0.4,0.5-0.5,0.7c-0.7,0.9,0.6,1.8,1.4,1.4
				c0.8-0.4,1.7-0.9,2.5-1.3c-0.5-0.5-0.9-0.9-1.4-1.4c-0.4,0.6-0.7,1.2-1.1,1.8c-0.5,0.9,0.5,1.9,1.4,1.4c0.8-0.5,1.6-0.9,2.4-1.4
				c-0.5-0.5-0.9-0.9-1.4-1.4c-0.4,0.6-0.8,1.1-1.2,1.7c-0.6,0.9,0.6,1.8,1.4,1.4c0.6-0.3,1.1-0.6,1.6-1c-0.5-0.5-0.9-0.9-1.4-1.4
				c-0.3,0.4-0.6,0.9-0.9,1.3c-0.7,1,0.8,1.9,1.6,1.2c1.2-1,2.1-2,3-3.3c0.7-1-0.8-1.8-1.6-1.2c-0.7,0.5-1.4,1.1-2.1,1.6
				c0.5,0.5,0.9,0.9,1.4,1.4c1.4-1.1,2.9-2.3,4.3-3.4c-0.5-0.5-0.9-0.9-1.4-1.4c-0.7,0.6-1.3,1.3-2,1.9c-0.8,0.8,0.2,2.2,1.2,1.6
				c0.6-0.4,1.2-0.8,1.8-1.1c-0.5-0.2-1-0.4-1.5-0.6c0.1,0.2,0.1,0.3,0.2,0.5c0.2,0.5,0.7,0.9,1.2,0.7c1.2-0.4,0.5-0.8,1.3-1.5
				c1.8-1.7,4.6-2.1,7.4-2.7c1.2-0.3,0.8-1.9-0.3-2c-1.4-0.1-12.3-0.6-12.5-1.7c-0.1-0.7-0.8-1.3-1.5-0.9c-1.6,1-3.2,2-4.8,3.1
				c-1.1,0.7-0.1,2.4,1,1.7c0.9-0.5,1.7-1,2.6-1.5c-0.4-0.5-0.8-1-1.2-1.6c-0.7,0.6-1.4,1.2-2.1,1.7c-0.9,0.7,0.3,2.2,1.2,1.6
				c0.8-0.4,1.5-0.9,2.2-1.5c1-0.8,0-2.5-1-1.7c-1.1,0.8-2.1,1.7-3.1,2.7c-0.8,0.8,0.2,2.1,1.2,1.6c1.1-0.6,2.1-1.2,3.2-1.8
				c-0.4-0.5-0.8-1-1.2-1.6c-0.8,0.8-1.6,1.7-2.4,2.5c-0.8,0.8,0.2,2.2,1.2,1.6c1.4-1,2.8-1.9,4.2-2.9c-0.4-0.5-0.8-1-1.2-1.6
				c-1.3,1.1-2.6,2.2-3.9,3.3c-1,0.9,0.4,2.2,1.4,1.4c1.4-1.1,2.6-2.2,3.9-3.5c0.8-0.8-0.2-2.1-1.2-1.6c-1.7,0.9-3.2,1.9-4.7,3.1
				c0.5,0.5,0.9,0.9,1.4,1.4c0.9-0.9,1.8-1.7,2.8-2.4c-0.5-0.5-0.9-0.9-1.4-1.4c-1,0.9-1.8,1.8-2.7,2.9c-0.7,0.8,0.2,2.2,1.2,1.6
				c1.7-1.1,3.4-2.2,5-3.5c-0.5-0.5-0.9-0.9-1.4-1.4c-1.5,1.2-2.9,2.5-4.3,3.9c-0.8,0.8,0.2,2.2,1.2,1.6c1.8-1.1,3.3-2.2,4.9-3.6
				c1-0.9-0.4-2.2-1.4-1.4c-1.7,1.4-3.4,2.8-5,4.3c-0.8,0.8,0.2,2.2,1.2,1.6c2-1.3,3.9-2.7,5.7-4.2c1-0.8-0.4-2.2-1.4-1.4
				c-1.8,1.5-3.6,3-5.3,4.7c-0.8,0.8,0.3,2.3,1.2,1.6c2-1.5,4-2.9,6-4.4c-0.3-0.6-0.7-1.2-1-1.7c-1.8,1.4-3.5,2.8-5.1,4.5
				c-0.7,0.8,0.2,2.3,1.2,1.6c2.2-1.6,4.4-3.2,6.6-4.9c0.9-0.7-0.3-2.2-1.2-1.6c-1.8,1.3-3.5,2.8-5,4.4c-0.7,0.8,0.2,2.3,1.2,1.6
				c2-1.4,4-2.9,6-4.3c-0.3-0.6-0.7-1.2-1-1.7c-2.3,1.7-4.4,3.4-6.4,5.4c-0.8,0.8,0.3,2.3,1.2,1.6c2.4-1.7,4.7-3.4,7.1-5.1
				c-0.3-0.6-0.7-1.2-1-1.7c-2,1.5-4,3.1-5.9,4.9c-0.8,0.8,0.3,2.2,1.2,1.6c1.8-1.2,3.5-2.4,5.1-3.7c-0.4-0.5-0.8-1-1.2-1.6
				c-0.7,0.6-1.4,1.2-2.1,1.8c-0.9,0.7,0.3,2.2,1.2,1.6c0.9-0.6,1.8-1.2,2.7-1.8c-0.4-0.5-0.8-1-1.2-1.6c-0.6,0.6-1.1,1.1-1.7,1.7
				c-0.8,0.8,0.2,2.2,1.2,1.6c1.3-0.8,2.3-1.6,3.4-2.7c0.6-0.7,0-2-1-1.7c-0.3,0.1-0.6,0.2-1,0.3c0.3,0.6,0.5,1.2,0.8,1.8
				c0.3-0.2,0.6-0.4,0.9-0.5c-0.5-0.5-0.9-0.9-1.4-1.4c-0.1,0.2-0.2,0.3-0.3,0.5c-0.7,1.1,1,2.1,1.7,1c0.1-0.2,0.2-0.3,0.3-0.5
				c0.5-0.9-0.5-1.9-1.4-1.4c-0.3,0.2-0.6,0.4-0.9,0.5c-1,0.6-0.3,2.2,0.8,1.8c0.3-0.1,0.6-0.2,1-0.3c-0.3-0.6-0.6-1.1-1-1.7
				c-0.8,1-1.8,1.8-3,2.4c0.4,0.5,0.8,1,1.2,1.6c0.6-0.6,1.1-1.1,1.7-1.7c0.8-0.8-0.3-2.3-1.2-1.6c-0.9,0.7-1.8,1.3-2.7,1.8
				c0.4,0.5,0.8,1,1.2,1.6c0.7-0.6,1.4-1.2,2.1-1.8c0.9-0.7-0.3-2.3-1.2-1.6c-1.7,1.3-3.4,2.5-5.1,3.7c0.4,0.5,0.8,1,1.2,1.6
				c1.8-1.6,3.5-3.1,5.4-4.6c1-0.8,0-2.5-1-1.7c-2.4,1.7-4.7,3.4-7.1,5.1c0.4,0.5,0.8,1,1.2,1.6c1.9-1.9,3.8-3.5,6-5.1
				c1-0.8,0-2.5-1-1.7c-2,1.4-4,2.9-6,4.3c0.4,0.5,0.8,1,1.2,1.6c1.5-1.6,2.9-2.8,4.6-4.1c-0.4-0.5-0.8-1-1.2-1.6
				c-2,1.6-4.1,3.1-6.2,4.6c0.4,0.5,0.8,1,1.2,1.6c1.5-1.6,2.9-2.9,4.7-4.2c1-0.8,0-2.5-1-1.7c-2,1.5-4,2.9-6,4.4
				c0.4,0.5,0.8,1,1.2,1.6c1.7-1.7,3.4-3.2,5.3-4.7c-0.5-0.5-0.9-0.9-1.4-1.4c-1.7,1.4-3.5,2.7-5.3,3.9c0.4,0.5,0.8,1,1.2,1.6
				c1.6-1.5,3.2-3,5-4.3c-0.5-0.5-0.9-0.9-1.4-1.4c-1.4,1.2-2.9,2.3-4.5,3.3c0.4,0.5,0.8,1,1.2,1.6c1.4-1.4,2.8-2.6,4.3-3.9
				c1-0.8-0.4-2.2-1.4-1.4c-1.5,1.2-3,2.2-4.6,3.1c0.4,0.5,0.8,1,1.2,1.6c0.8-1.1,1.7-2,2.7-2.9c1-0.9-0.4-2.2-1.4-1.4
				c-1,0.8-1.9,1.6-2.8,2.4c-1,0.9,0.4,2.2,1.4,1.4c1.4-1.2,2.7-2,4.3-2.8c-0.4-0.5-0.8-1-1.2-1.6c-1.3,1.3-2.5,2.4-3.9,3.5
				c0.5,0.5,0.9,0.9,1.4,1.4c1.3-1.1,2.5-2.2,3.9-3.3c0.9-0.7-0.3-2.2-1.2-1.6c-1.4,1-2.8,1.9-4.2,2.9c0.4,0.5,0.8,1,1.2,1.6
				c0.8-0.8,1.6-1.7,2.4-2.5c0.8-0.8-0.2-2.1-1.2-1.6c-1.1,0.6-2.1,1.2-3.2,1.8c0.4,0.5,0.8,1,1.2,1.6c0.8-0.9,1.7-1.7,2.7-2.4
				c-0.3-0.6-0.7-1.2-1-1.7c-0.7,0.6-1.4,1.1-2.2,1.5c0.4,0.5,0.8,1,1.2,1.6c0.7-0.6,1.4-1.2,2.1-1.7c0.9-0.7-0.3-2.1-1.2-1.6
				c-0.9,0.5-1.7,1-2.6,1.5c0.3,0.6,0.7,1.2,1,1.7c1.6-1,3.2-2,4.8-3.1c-0.5-0.3-1-0.6-1.5-0.9c0.2,1.5,0.7,1.9,2,2.4
				c3.5,1.4,8.7,0.9,12.4,1.3c-0.1-0.7-0.2-1.3-0.3-2c-2,0.5-7,0.7-8.4,2.6c-0.2,0.2-1,2-0.2,1.7c0.4,0.2,0.8,0.5,1.2,0.7
				c-0.1-0.2-0.1-0.3-0.2-0.5c-0.2-0.6-0.9-1-1.5-0.6c-0.6,0.4-1.2,0.8-1.8,1.1c0.4,0.5,0.8,1,1.2,1.6c0.7-0.6,1.3-1.3,2-1.9
				c1-0.9-0.4-2.2-1.4-1.4c-1.4,1.1-2.9,2.3-4.3,3.4c-1,0.8,0.4,2.2,1.4,1.4c0.7-0.5,1.4-1.1,2.1-1.6c-0.5-0.4-1-0.8-1.6-1.2
				c-0.7,1.2-1.6,2.1-2.7,2.9c0.5,0.4,1,0.8,1.6,1.2c0.3-0.4,0.6-0.9,0.9-1.3c0.5-0.8-0.6-1.9-1.4-1.4c-0.5,0.4-1,0.7-1.6,1
				c0.5,0.5,0.9,0.9,1.4,1.4c0.4-0.6,0.8-1.1,1.2-1.7c0.6-0.8-0.6-1.8-1.4-1.4c-0.8,0.5-1.6,0.9-2.4,1.4c0.5,0.5,0.9,0.9,1.4,1.4
				c0.4-0.6,0.7-1.2,1.1-1.8c0.5-0.9-0.5-1.8-1.4-1.4c-0.8,0.4-1.7,0.9-2.5,1.3c0.5,0.5,0.9,0.9,1.4,1.4c0.2-0.2,0.4-0.5,0.5-0.7
				c0.6-0.8-0.6-1.9-1.4-1.4c-0.8,0.5-1.6,1.1-2.3,1.6c0.4,0.5,0.8,1,1.2,1.6c0.4-0.5,0.8-0.9,1.1-1.4c0.7-0.9-0.2-2-1.2-1.6
				c-0.4,0.2-0.7,0.3-1.1,0.5c0.4,0.5,0.8,1,1.2,1.6c0.7-0.8,0.9-1.1,1.5-2c0.6-0.9-0.5-1.8-1.4-1.4c-0.9,0.5-1.9,1-2.8,1.5
				c0.5,0.5,0.9,0.9,1.4,1.4c0.6-0.8,1.2-1.7,1.8-2.5c0.5-0.7-0.3-1.8-1.1-1.5c-1.4,0.6-2.6,1.2-3.9,1.9c0.4,0.5,0.8,1,1.2,1.6
				c0.8-0.5,1.5-1,2.3-1.5c-0.4-0.5-0.8-1-1.2-1.6c-0.6,0.8-1.3,1.6-1.9,2.4c-0.6,0.8,0.2,2.3,1.2,1.6c1.3-0.9,2.5-1.8,3.8-2.6
				c-0.4-0.5-0.8-1-1.2-1.6c-1,0.8-2.1,1.6-3.1,2.5c0.5,0.5,0.9,0.9,1.4,1.4c1-1.1,2-2.2,3-3.3c0.8-0.9-0.2-2-1.2-1.6
				c-1.3,0.6-2.6,1.2-3.8,2c0.4,0.5,0.8,1,1.2,1.6c0.9-0.8,1.8-1.7,2.6-2.5c0.8-0.8-0.3-2.2-1.2-1.6c-1.7,1.1-3.2,2.3-4.8,3.7
				c0.5,0.5,0.9,0.9,1.4,1.4c1.5-1.5,3.1-2.8,4.7-4.2c0.9-0.7-0.3-2.2-1.2-1.6c-1.8,1.3-3.6,2.6-5.4,3.9c0.4,0.5,0.8,1,1.2,1.6
				c1.7-1.6,3.5-3.3,5.2-4.9c0.8-0.8-0.3-2.2-1.2-1.6c-2.2,1.5-4.3,3-6.5,4.5c0.4,0.5,0.8,1,1.2,1.6c1.8-1.8,3.7-3.4,5.8-4.8
				c-0.3-0.6-0.7-1.2-1-1.7c-2.1,1.5-4.2,3-6.3,4.4c0.4,0.5,0.8,1,1.2,1.6c2.1-1.8,4.3-3.4,6.6-4.9c1.1-0.7,0.1-2.4-1-1.7
				c-2,1.3-4,2.5-5.9,3.8c0.4,0.5,0.8,1,1.2,1.6c1.6-1.3,3.3-2.7,4.9-4c0.9-0.8-0.3-2-1.2-1.6c-1.8,0.9-3.5,1.7-5.3,2.6
				c0.4,0.5,0.8,1,1.2,1.6c0.3-0.3,0.5-0.6,0.8-1c0.8-1-0.4-2.2-1.4-1.4c-0.5,0.4-1,0.8-1.5,1.2c-0.9,0.7,0.3,2.2,1.2,1.6
				c0.9-0.6,1.8-1.3,2.6-1.9c-0.4-0.5-0.8-1-1.2-1.6c-0.5,0.5-0.9,1-1.4,1.5c-0.8,0.8,0.2,2.2,1.2,1.6c0.7-0.6,1.6-1.1,2.5-1.4
				c-0.4-0.5-0.8-1-1.2-1.6c-0.6,0.8-1.2,1.6-1.9,2.3C49.5,108.1,50.9,109.5,51.7,108.5L51.7,108.5z"/>
		</g>
	</g>
	<g>
		<g>
			<path class="st2" d="M67.7,118.8c0.5-0.1,1-0.1,1.5,0.1c0.1-0.7,0.2-1.3,0.3-2c-1.2,0-2.3,0-3.5,0.1c-1.3,0.1-1.3,1.9,0,2
				c1,0.1,2.1-0.5,3,0.3c0.5-0.5,0.9-0.9,1.4-1.4c-1.6-1.3-3.6-1.1-5.5-0.6c-1.2,0.3-0.7,2.3,0.5,1.9c1.1-0.3,2.6-0.7,3.6,0.1
				c1,0.8,2.4-0.5,1.4-1.4c-0.6-0.5-1.2-0.9-2-1c-0.8-0.1-1.6,0.1-2.4,0.1c0,0.7,0,1.3,0,2c1.2-0.1,2.3-0.1,3.5-0.1
				c1.1,0,1.3-1.7,0.3-2c-0.8-0.2-1.7-0.2-2.5-0.1C65.9,117.2,66.5,119.1,67.7,118.8L67.7,118.8z"/>
		</g>
	</g>
	<g>
		<g>
			<path class="st2" d="M62.1,108.4c-0.4,0.5-0.5,0.6-0.8,1.2c-0.4,0.8,0.5,2,1.4,1.4c0.6-0.5,0.9-0.7,1.4-1.4
				c0.6-0.8-0.6-1.9-1.4-1.4c-1.2,0.8-2.7,1.9-4,2.1c-1.3,0.2-2.3-0.5-3.5-0.6c-1.1-0.1-1.9,0.5-2.2,1.6c-0.2,0.6,0.3,1.3,1,1.3
				c1.1,0,1.8-0.2,2.8-0.7c-0.4-0.5-0.8-1-1.2-1.6c-0.2,0.2-0.4,0.3-0.6,0.5c-0.7,0.4-0.6,1.7,0.2,1.8c0.4,0.1,0.8,0.1,1.2,0.2
				c0-0.6,0-1.3,0-1.9c0-1.1,0.4-2,1.2-2.7c0.7-0.9,1.6-1.4,2.8-1.4c-0.3-0.5-0.6-1-0.9-1.5c-0.5,0.7-1.3,1.9-2.1,2.2
				c-1.1,0.4-0.3,0.2-1.3-0.1c-1.1-0.3-2-0.7-3.1-0.8c-1.5-0.2-3.2-0.2-4,1.3c-0.4,0.7,0.3,1.7,1.1,1.5c0.1,0,0.2-0.1,0.2-0.1
				c1.2-0.4,0.7-2.3-0.5-1.9c-0.1,0-0.2,0.1-0.2,0.1c0.4,0.5,0.8,1,1.1,1.5c0.6-1.1,3.8,0,4.6,0.4c0.6,0.3,1.2,0.7,1.8,0.6
				c1.7-0.2,3.2-2.4,4.1-3.7c0.5-0.6-0.2-1.5-0.9-1.5c-2.5,0.1-4.9,1.9-5.8,4.4c-0.7,2,0.1,4,2.4,3.7c1-0.1,0.9-1.8,0-1.9
				c-0.4-0.1-0.8-0.1-1.2-0.2c0.1,0.6,0.2,1.2,0.2,1.8c0.5-0.3,0.6-0.4,1-0.8c0.8-0.9-0.2-2.1-1.2-1.6c-0.6,0.1-1.2,0.3-1.7,0.4
				c0.3,0.4,0.6,0.8,1,1.3c-0.1,0.3,3.1,0.7,3.4,0.7c1.9-0.3,3.8-1.5,5.3-2.6c-0.5-0.5-0.9-0.9-1.4-1.4c-0.2,0.2-0.4,0.4-0.7,0.7
				c0.5,0.5,0.9,0.9,1.4,1.4c0.2-0.3,0.3-0.6,0.5-0.8C64.3,108.8,62.9,107.4,62.1,108.4L62.1,108.4z"/>
		</g>
	</g>
	<g>
		<g>
			<path class="st2" d="M40.7,111.8c-1.1-0.9-1.9-0.3-2.4,0.9c-0.3,0.8,0.6,1.3,1.2,1.2c0.3,0,0.6-0.3,0.8-0.3
				c-0.2-0.1-0.2-0.2,0-0.1c0.2,0.1,0.4,0.2,0.6,0.2c1,0.1,1.9-0.1,2.8-0.2c2.4-0.3,4.7-0.2,6.8-1.6c-0.5-0.5-0.9-0.9-1.4-1.4
				c-0.7,0.9-1.5,1.7-2.4,2.5c0.4,0.5,0.8,1,1.2,1.6c0.4-0.4,0.8-0.8,1.2-1.3c-0.5-0.4-1-0.8-1.6-1.2c-0.7,1-1.3,1.9-2,2.9
				c-0.6,0.8,0.5,1.9,1.4,1.4c0.9-0.6,1.6-1.2,2.3-1.9c-0.5-0.4-1-0.8-1.6-1.2c-0.7,1.2-1.5,2.3-2.4,3.4c-0.8,1,0.6,2.4,1.4,1.4
				c0.4-0.5,0.8-0.9,1.2-1.4c-0.5-0.4-1-0.8-1.6-1.2c-0.3,0.3-0.5,0.6-0.8,0.9c0.5,0.4,1,0.8,1.6,1.2c0.5-0.7,1-1.5,1.6-2.2
				c0.8-1.1-1-2-1.7-1c-0.4,0.5-0.9,1-1.3,1.6c-0.8,1.1-0.2,0.6-0.2,0.5c-0.3-0.6-0.2-1.2-0.7-1.9c-1-1.4-2.8-1.8-4.4-2.1
				c0.1,0.6,0.3,1.1,0.4,1.7c1-1,1.6-2.4,0.3-3.4c-0.2,0.6-0.5,1.1-0.7,1.7c2.3-0.2,4,3.6,6.2,2.7c0.4-0.2,0.7-0.5,0.7-1
				c0.1-4.3-6.8-0.1-4.3,2.2c1,1,2.3-0.2,2.3-1.4c0-2.2-2.4-2.6-4.1-2.3c-1,0.1-1,1.8,0,1.9c1.5,0.2,2.6,0.8,3.4,2.1
				c0.6-0.3,1.2-0.7,1.7-1c-0.1-0.2-0.2-0.4-0.4-0.6c-0.5-0.7-1.6-0.6-1.8,0.2c0,0.2-0.1,0.3-0.1,0.5c-0.4,1.2,1.6,1.8,1.9,0.5
				c0-0.2,0.1-0.3,0.1-0.5c-0.6,0.1-1.2,0.2-1.8,0.2c0.1,0.2,0.2,0.4,0.4,0.6c0.7,1.1,2.4,0.1,1.7-1c-1.1-1.7-2.6-2.7-4.6-3
				c0,0.6,0,1.3,0,1.9c0.5,0.1,1,0.3,1.6,0.4c0.3-0.1,0.6-0.2,1-0.3c0.6,0.3,0.9,0.1,1-0.6c0.2-0.3,0.5-0.6,0.7-1
				c-0.5,0.2-2.3-1.7-2.8-2.1c-0.9-0.5-1.8-0.8-2.9-0.7c-0.8,0.1-1.4,1.1-0.7,1.7c-0.1,0.2-0.2,0.4-0.3,0.6
				c-0.5,0.5-0.3,1.5,0.4,1.7c0.8,0.2,2,0.3,2.6,0.8c1.8,1.3,0.7,1.4,1,2.6c0.2,0.5,0.5,0.9,1,1.1c1.7,0.5,3.3-2.3,4.2-3.4
				c-0.6-0.3-1.2-0.7-1.7-1c-0.5,0.7-1,1.5-1.6,2.2c-0.7,0.9,0.8,2,1.6,1.2c0.5-0.5,0.7-0.8,1.1-1.3c0.6-0.9-0.8-2.1-1.6-1.2
				c-0.4,0.5-0.8,0.9-1.2,1.4c0.5,0.5,0.9,0.9,1.4,1.4c1-1.2,1.9-2.5,2.7-3.8c0.6-1-0.8-2-1.6-1.2c-0.6,0.6-1.2,1.1-1.9,1.6
				c0.5,0.5,0.9,0.9,1.4,1.4c0.7-1,1.3-1.9,2-2.9c0.6-0.9-0.8-2-1.6-1.2c-0.4,0.4-0.8,0.8-1.2,1.3c-0.7,0.8,0.3,2.3,1.2,1.6
				c1.2-0.9,2.2-1.9,3.2-3.2c0.6-0.8-0.6-1.9-1.4-1.4c-2,1.4-4.3,1.1-6.6,1.4c-0.6,0.1-1.1,0.2-1.7,0.1c-0.3,0-0.6-0.3-0.9-0.3
				c-0.5,0-0.9,0.4-1.4,0.5c0.4,0.4,0.8,0.8,1.2,1.2c0.1-0.2,0.1-0.4,0.2-0.5c-0.2,0.2-0.5,0.5-0.7,0.7c0.1,0,0.2-0.1,0.3-0.1
				c-0.3-0.1-0.6-0.2-1-0.3c0.1,0.1,0.1,0.1,0.2,0.2C40.3,114,41.7,112.6,40.7,111.8L40.7,111.8z"/>
		</g>
	</g>
	<g>
		<g>
			<path class="st2" d="M46.1,116.3c0.3-0.4,0.6-0.7,1.1-0.8c-0.4-0.3-0.8-0.6-1.3-1c0,0,0,0.1,0,0.1c0.1-0.2,0.2-0.5,0.3-0.7
				c-0.2,0.2-0.5,0.4-0.6,0.8c-0.1,0.4,0.1,0.9,0.4,1.2c0.7,0.8,1.7,0.4,2.4-0.2c-0.6-0.1-1.1-0.3-1.7-0.4c0.2,1,1.6,1.5,2.1,0.4
				c0.2-0.5,0.1-1.1-0.4-1.4c-0.4-0.3-1.1-0.1-1.4,0.4c0,0,0,0,0,0.1c0.2-0.2,0.4-0.3,0.6-0.5c0,0-0.1,0-0.1,0c0.2,0,0.4,0,0.5,0
				c0,0-0.1,0-0.1,0c0.2,0.2,0.4,0.3,0.6,0.5c0,0,0,0,0,0c-0.2-0.8-1.1-0.9-1.7-0.4c-0.3,0.2-0.1,0.4,0.6,0.4c0,0.2,0,0.4,0,0.5
				c0,0,0-0.1,0-0.1c-0.1,0.1-0.2,0.3-0.3,0.4c0,0,0.3-0.2,0.4-0.3c0.2-0.2,0.3-0.5,0.3-0.8c0.1-0.7-0.7-1.1-1.3-1
				c-1,0.2-1.8,0.8-2.3,1.7C43.7,116.4,45.5,117.5,46.1,116.3L46.1,116.3z"/>
		</g>
	</g>
	<g>
		<g>
			<path class="st2" d="M21.7,105.6c0.2,0.3,0.5,0.6,0.7,0.9c0.2,0.9,1.3,0.9,1.8,0.2c0.5-0.6,0.9-1.2,1.4-1.8
				c-0.6-0.2-1.2-0.3-1.9-0.5c-0.1,0.8-0.2,1.5-0.2,2.3c0.7,0,1.3,0,2,0c0-0.6,0.1-1.2,0.1-1.8c0-1-1.4-1.4-1.9-0.5
				c-0.5,1.1-0.9,2.1-1.1,3.2c-0.2,1.1,1.1,1.7,1.8,0.8c0.2-0.3,0.4-0.6,0.6-0.9c-0.6-0.3-1.2-0.7-1.7-1c-0.4,0.8-0.5,1.2-0.6,2.1
				c-0.1,0.7,0.9,1.3,1.5,0.9c1-0.7,2-2.5,0.3-3.2c-1.8-0.7-2.7,1.8-2.7,3.1c0,0.7,0.9,1.3,1.5,0.9c0.9-0.6,1.6-1.2,2.3-1.9
				c-0.5-0.4-1-0.8-1.6-1.2c-0.3,0.4-0.5,0.9-0.8,1.3c-0.5,0.9,0.5,1.9,1.4,1.4c0.6-0.4,1.3-0.7,1.9-1.1c-0.4-0.5-0.8-1-1.2-1.6
				c-1,1.1-2.2,2.4-3.7,3c-2.3,0.8-3.4-0.8-4.8-2.2c-1.4-1.4-2.5-2.7-4.6-2.8c0.3,0.3,0.7,0.7,1,1c0,0.4,6.6,0.7,7.4,0.8
				c0-0.7,0-1.3,0-2c-1.9-0.1-3.7,0-5.6,0.4c-0.7,0.1-1,1.2-0.4,1.7c1.8,1.4,4.7,0.1,6.6-0.5c-0.3-0.6-0.5-1.2-0.8-1.8
				c-1,0.7-1.9,1.5-2.9,2.2c0.4,0.5,0.8,1,1.2,1.6c0.8-0.7,1.3-1.8,0.4-2.7c-1.1-1.1-2.4,0.1-3.3,1c0.5,0.5,0.9,0.9,1.4,1.4
				c0.4-0.4,0.8-0.8,1.1-1.2c0.7-0.8-0.2-2.2-1.2-1.6c-0.6,0.4-0.8,0.6-1.3,1.1c0.5,0.4,1,0.8,1.6,1.2c0.1-0.1,0.2-0.3,0.3-0.4
				c-0.6,0-1.2,0-1.7,0c1,1.7,2.4,0.7,3.6-0.1c-0.5-0.5-0.9-0.9-1.4-1.4c-0.4,0.9-0.7,1.7-0.9,2.6c-0.2,0.8,0.7,1.6,1.5,1.1
				c1.1-0.7,1.9-1.6,2.7-2.7c0.6-0.9-0.9-2.1-1.6-1.2c-0.8,1.1-1.6,2.1-2.2,3.3c-0.5,1,0.7,2,1.6,1.2c1.1-1,1.9-2.1,2.6-3.3
				c0.5-1-0.8-2.1-1.6-1.2c-0.6,0.7-1,1.4-1.3,2.2c-0.4,1,1,1.6,1.7,1c0.4-0.3,0.7-0.7,1.1-1c-0.5-0.4-1-0.8-1.6-1.2
				c-0.4,0.7-0.7,1.3-0.9,2c-0.2,0.8,0.7,1.7,1.5,1.1c0.7-0.5,1.3-1.1,1.8-1.8c-0.6-0.3-1.2-0.7-1.7-1c-0.5,1-0.9,2-1.2,3.1
				c-0.3,0.9,1,1.7,1.7,1c0.5-0.5,1-1,1.5-1.6c-0.5-0.4-1-0.8-1.6-1.2c-0.2,0.5-0.5,1-0.7,1.5c-0.5,1,0.7,2,1.6,1.2
				c0.3-0.3,0.7-0.6,1-0.9c-0.5-0.5-0.9-0.9-1.4-1.4c-0.8,1-0.6,1.2-1.7,0.9c-0.8-0.3-1.6-1-2.2-1.5c-0.6-0.4-1.6,0.2-1.5,0.9
				c0.2,1.7,1.1,2.4,2.7,2.7c1,0.2,1.7-0.9,1-1.7c-0.9-1-1.9-1.7-3.1-2.4c-0.8-0.5-2,0.5-1.4,1.4c0.5,0.7,0.7,0.9,1.4,1.3
				c1.1,0.6,2.1-1.1,1-1.7c-0.2-0.2-0.5-0.4-0.7-0.6c-0.5,0.5-0.9,0.9-1.4,1.4c1,0.6,1.8,1.3,2.7,2.1c0.3-0.6,0.6-1.1,1-1.7
				c-0.4-0.2-0.8-0.5-1.3-0.7c-0.5,0.3-1,0.6-1.5,0.9c0.9,0.7,2.7,2.3,4,2.2c1.1-0.1,1.7-1.1,2.3-1.9c0.8-1-0.4-2.3-1.4-1.4
				c-0.3,0.3-0.7,0.6-1,0.9c0.5,0.4,1,0.8,1.6,1.2c0.2-0.5,0.5-1,0.7-1.5c0.5-1-0.7-2.1-1.6-1.2c-0.5,0.5-1,1-1.5,1.6
				c0.6,0.3,1.1,0.6,1.7,1c0.3-0.9,0.6-1.7,1-2.6c0.6-1.2-1-2.1-1.7-1c-0.4,0.4-0.7,0.7-1.1,1.1c0.5,0.4,1,0.8,1.5,1.1
				c0.1-0.6,0.3-1.1,0.7-1.6c0.6-1-0.8-2-1.6-1.2c-0.4,0.3-0.7,0.7-1.1,1c0.6,0.3,1.1,0.6,1.7,1c0.3-0.4,0.5-0.9,0.8-1.3
				c-0.5-0.4-1-0.8-1.6-1.2c-0.6,1.1-1.4,2-2.3,2.9c0.5,0.4,1,0.8,1.6,1.2c0.6-1.1,1.1-2,1.9-2.9c-0.5-0.4-1-0.8-1.6-1.2
				c-0.5,0.8-1.2,1.5-2,1.9c0.5,0.4,1,0.8,1.5,1.1c0.1-0.7,0.4-1.4,0.7-2.1c0.4-0.8-0.5-2-1.4-1.4c0.1-0.1-1,0.6-0.9,0.8
				c-0.4-0.7-1.3-0.6-1.7,0c-0.1,0.1-0.2,0.3-0.3,0.4c-0.6,1,0.8,2,1.6,1.2c0.3-0.3,0.6-0.5,0.9-0.8c-0.4-0.5-0.8-1-1.2-1.6
				c-0.4,0.4-0.8,0.8-1.1,1.2c-0.9,0.9,0.5,2.3,1.4,1.4c0-0.4,0-0.7,0-1.1c-0.8,0.8,0.3,2.3,1.2,1.6c1-0.7,1.9-1.5,2.9-2.2
				c0.8-0.6,0.4-2.2-0.8-1.8c-0.7,0.2-4,1.5-4.6,1c-0.1,0.6-0.3,1.1-0.4,1.7c1.7-0.3,3.4-0.4,5.1-0.3c1.3,0.1,1.3-1.9,0-2
				c-1.4-0.1-2.7-0.2-4.1-0.3c-1.1-0.1-2.8-0.5-3.9-0.1c-0.9,0.3-1.2,0.7-1.3,1.7c-0.1,0.6,0.5,1,1,1c3.2,0.2,4.2,5,7.4,5.4
				c2.8,0.4,5.3-2.1,7.1-3.9c0.8-0.8-0.2-2.1-1.2-1.6c-0.6,0.4-1.3,0.7-1.9,1.1c0.5,0.5,0.9,0.9,1.4,1.4c0.3-0.4,0.5-0.9,0.8-1.3
				c0.5-1-0.8-2.1-1.6-1.2c-0.5,0.6-1.2,1.2-1.9,1.6c0.5,0.3,1,0.6,1.5,0.9c-0.2-0.5-0.4-1.1-0.6-1.6c0.5,0.3,1,0.6,1.5,0.9
				c0.1-0.4,0.2-0.7,0.3-1.1c0.5-1.2-1.1-2.2-1.7-1c-0.1,0.3-0.3,0.6-0.6,0.9c0.6,0.3,1.2,0.5,1.8,0.8c0.2-1,0.4-1.8,0.9-2.8
				c-0.6-0.2-1.2-0.3-1.9-0.5c0,0.6-0.1,1.2-0.1,1.8c-0.1,1.3,1.9,1.3,2,0c0.1-0.8,0.2-1.5,0.2-2.3c0.1-1.1-1.3-1.2-1.9-0.5
				c-0.5,0.6-0.9,1.2-1.4,1.8c0.6,0.1,1.2,0.2,1.8,0.2c-0.3-1-0.7-1.6-1.7-2.1C21.6,103.3,20.6,105,21.7,105.6L21.7,105.6z"/>
		</g>
	</g>
	<g>
		<g>
			<path class="st2" d="M27.2,114c-0.4-0.1-0.8,0-1.2,0.1c0.3,0.6,0.5,1.2,0.8,1.8c0.5-0.2,0.9-0.6,1.3-1c-0.6-0.3-1.1-0.6-1.7-1
				c-0.1,0.4-0.2,0.8-0.2,1.3c0,0.7,0.7,1.1,1.3,1c0.4-0.1,0.7-0.3,1.1-0.6c-0.6-0.2-1.1-0.5-1.7-0.7c0,0.3-0.1,0.5-0.2,0.8
				c-0.2,0.8,0.5,1.4,1.2,1.2c1.1-0.2,1.9-2,0.7-2.7c-1.4-0.7-2.4,1.3-2.6,2.3c-0.2,0.9,0.7,1.6,1.5,1.1c0.9-0.5,1.6-1.1,2.1-2
				c0.6-1.1-1-2.1-1.7-1c-0.5,0.7-0.7,1.5-0.8,2.3c-0.1,1,1.1,1.2,1.7,0.7c0.7-0.6,1.2-1.4,1.6-2.3c0.3-0.9-0.8-1.5-1.5-1.1
				c-1.5,0.8-2.1,3-2.7,4.4c-0.4,1,1,1.6,1.7,1c1-0.9,1.9-2,2.6-3.2c0.3-0.5,0.1-1.4-0.6-1.5c-1.6-0.3-2.4,1.7-2.9,2.9
				c-0.4,1,1,1.6,1.7,1c0.7-0.6,1.2-1.2,1.8-1.9c-0.5-0.4-1-0.8-1.6-1.2c-0.4,0.7-0.7,1.4-1,2.2c-0.4,1,1,1.6,1.7,1
				c0.7-0.6,1.3-1.3,1.8-2.1c0.6-1-0.8-2-1.6-1.2c-0.5,0.5-0.9,1.1-1.3,1.7c-0.6,1,0.7,1.9,1.6,1.2c0.6-0.5,1-1.1,1.6-1.6
				c1-0.8-0.4-2.2-1.4-1.4c-0.6,0.5-1,1.1-1.6,1.6c0.5,0.4,1,0.8,1.6,1.2c0.3-0.5,0.6-0.9,1-1.3c-0.5-0.4-1-0.8-1.6-1.2
				c-0.4,0.6-0.9,1.2-1.5,1.7c0.6,0.3,1.1,0.6,1.7,1c0.2-0.6,0.5-1.2,0.8-1.7c0.6-0.9-0.8-2.1-1.6-1.2c-0.5,0.7-1.1,1.3-1.8,1.9
				c0.6,0.3,1.1,0.6,1.7,1c0.2-0.4,0.6-1.4,1-1.6c-0.3,0-0.5,0.1-0.8,0.1c0.1,0,0.1,0,0.2,0c-0.2-0.5-0.4-1-0.6-1.5
				c-0.6,1.1-1.3,2-2.2,2.8c0.6,0.3,1.1,0.6,1.7,1c0.3-0.9,0.8-2.8,1.7-3.2c-0.5-0.4-1-0.8-1.5-1.1c-0.2,0.6-0.6,1-1,1.4
				c0.6,0.2,1.1,0.5,1.7,0.7c0.1-0.5,0.3-0.9,0.5-1.3c-0.6-0.3-1.2-0.7-1.7-1c-0.3,0.6-0.7,1-1.3,1.3c0.5,0.4,1,0.8,1.5,1.1
				c0-0.2,0.2-1,0.5-1c-0.3-0.1-0.6-0.2-1-0.3c0,0,0.1,0.1,0.1,0.1c-0.1-0.2-0.2-0.5-0.3-0.7c0-0.1,0.1-0.2,0.2-0.2
				c0.4,0.4,0.8,0.8,1.2,1.2c0.1-0.4,0.2-0.8,0.2-1.3c0.1-1-1.1-1.2-1.7-0.7c-0.1,0-0.1,0-0.2,0c0.4,0.3,0.8,0.6,1.3,1
				c0-0.3,0-0.5,0.2-0.8c0.3-0.9-1-1.7-1.7-1c-0.3,0.3-0.6,0.5-0.9,0.7c-1,0.5-0.3,2.2,0.8,1.8c0.2-0.1,0.4-0.1,0.7-0.1
				C28.4,116.2,28.4,114.2,27.2,114L27.2,114z"/>
		</g>
	</g>
	<g>
		<g>
			<path class="st3" d="M50.2,108.9c-0.3-0.1-0.6-0.2-0.8-0.3c-0.5-0.2-1,0.2-1.2,0.6c-0.2,0.5,0,1,0.4,1.2c0.2,0.1,0.3,0.2,0.5,0.3
				c0.3-0.6,0.7-1.2,1-1.7c-0.4-0.2-0.7-0.3-1.1-0.1c-0.6,0.2-0.9,0.8-0.6,1.5c0.2,0.5,0.8,0.8,1.4,0.8c0.6,0,1-0.3,1.5-0.7
				c-0.6-0.1-1.1-0.3-1.7-0.4c0,0.1,0.1,0.2,0.1,0.2c0.2,0.6,0.9,1,1.5,0.6c1.2-0.7,0.7-2.4-0.5-2.7c-1.1-0.4-2.7,0-2.9,1.3
				c-0.1,0.5,0.1,1.1,0.7,1.2c0.2,0.1,0.4,0.1,0.6,0.2c1.1,0.7,2.1-1,1-1.7c-0.3-0.2-0.7-0.4-1.1-0.5c0.2,0.4,0.5,0.8,0.7,1.2
				c0-0.1-0.1,0,0,0c0,0,0.3,0,0.3,0c0,0,0.2,0,0.2,0c0-0.1-0.3-0.3-0.2-0.4c0.1-0.1,0.2-0.3,0.3-0.4c0,0,0,0,0,0
				c0.5,0.2,1,0.4,1.5,0.6c0-0.1-0.1-0.2-0.1-0.2c-0.3-0.7-1.1-1-1.7-0.4c0,0-0.1,0.1-0.1,0.1c0.2,0,0.3,0,0.5,0.2
				c-0.2,0.5-0.4,1-0.6,1.5c0,0,0,0,0,0c-0.2,0-0.3-0.1-0.5-0.1c0,0,0.1,0,0.1,0c0.5,0.2,1.1,0.1,1.4-0.4c0.3-0.5,0.1-1.1-0.4-1.4
				c-0.2-0.1-0.3-0.2-0.5-0.3c-0.3,0.6-0.5,1.2-0.8,1.8c0.3,0.1,0.6,0.2,0.8,0.3c0.5,0.2,1.1-0.2,1.2-0.7
				C51.1,109.5,50.7,109.1,50.2,108.9L50.2,108.9z"/>
		</g>
	</g>
	<g>
		<g>
			<path class="st3" d="M46,110.9c0.4-1.1-0.9-1.7-1.7-1.9c-1-0.3-2.1-0.2-3.1,0c0.1,0.7,0.2,1.3,0.3,2c0.9-0.2,1.3,0.3,2,0.8
				c0.8,0.6,1.7,0,2.2-0.7c-0.5,0.1-1,0.1-1.6,0.2c0.1,0.1,0.2,0.2,0.4,0.4c0.9,0.9,2.3-0.5,1.4-1.4c-0.1-0.1-0.2-0.2-0.4-0.4
				c-0.5-0.5-1.2-0.3-1.6,0.2c0.1-0.2,0.9,0.3,0.5-0.1c-0.1-0.1-0.3-0.3-0.5-0.4c-0.3-0.2-0.6-0.3-0.9-0.4c-0.7-0.2-1.4-0.2-2.1,0
				c-1.1,0.3-0.9,2.1,0.3,2c0.6-0.1,1.2-0.1,1.7-0.1c0.2,0,0.5,0,0.7,0.1c0.2,0,0.3,0.1,0.5,0.1c0.2,0.1,0.2,0.1,0.1,0
				c0-0.3-0.1-0.5-0.1-0.8c0,0,0,0.1,0,0.1C43.7,111.6,45.6,112.1,46,110.9L46,110.9z"/>
		</g>
	</g>
</g>
<linearGradient id="main_part_fill_2_" gradientUnits="userSpaceOnUse" x1="74.8498" y1="15.7839" x2="12.0122" y2="78.6215">
	<stop  offset="0.1363" style="stop-color:#F7D56B"/>
	<stop  offset="0.4007" style="stop-color:#F6ED54"/>
	<stop  offset="0.6358" style="stop-color:#F6EB56"/>
	<stop  offset="0.9284" style="stop-color:#F7D374"/>
</linearGradient>
<path id="main_part_fill_1_" class="st4" d="M68.3,71.3c-3.2,5.1-20.8,32.4-24.6,38.2c-0.1,0.2-0.2,0.4-0.3,0.5
	c-0.1-0.1-0.2-0.3-0.4-0.5c-3.7-5.8-21.3-33.1-24.6-38.2C14.9,65.6,1.8,51.2,8,26.2C13.7,3.4,38.6,0.8,43.1,0.5c0.1,0,0.4,0,0.4,0
	c0.1,0,0.2,0,0.3,0c4.5,0.3,29.4,2.8,35.1,25.6C85.1,51.2,72,65.6,68.3,71.3z"/>
<linearGradient id="main_part_stroke_2_" gradientUnits="userSpaceOnUse" x1="74.8498" y1="15.7839" x2="12.0122" y2="78.6215">
	<stop  offset="0.1363" style="stop-color:#F7D56B"/>
	<stop  offset="0.4007" style="stop-color:#F6ED54"/>
	<stop  offset="0.6358" style="stop-color:#F6EB56"/>
	<stop  offset="0.9284" style="stop-color:#F7D374"/>
</linearGradient>
<path id="main_part_stroke_1_" class="st5" d="M68.3,71.3c-3.2,5.1-20.8,32.4-24.6,38.2c-0.1,0.2-0.2,0.4-0.3,0.5
	c-0.1-0.1-0.2-0.3-0.4-0.5c-3.7-5.8-21.3-33.1-24.6-38.2C14.9,65.6,1.8,51.2,8,26.2C13.7,3.4,38.6,0.8,43.1,0.5c0.1,0,0.4,0,0.4,0
	c0.1,0,0.2,0,0.3,0c4.5,0.3,29.4,2.8,35.1,25.6C85.1,51.2,72,65.6,68.3,71.3z"/>
<circle id="planet_shadow" class="st6" cx="46.5" cy="41.9" r="25"/>
<linearGradient id="blue_circle_fill_1_" gradientUnits="userSpaceOnUse" x1="18.8279" y1="39.3679" x2="68.8157" y2="39.3679">
	<stop  offset="6.744792e-02" style="stop-color:#59A3C4"/>
	<stop  offset="0.9204" style="stop-color:#7CE0FF"/>
</linearGradient>
<circle id="blue_circle_fill" class="st7" cx="43.8" cy="39.4" r="25"/>
<g id="white_circle" class="st8">
	<g>
		<path class="st9" d="M50.7,42.6c7.6,0,14-6.4,14-14c0-7.6-6.4-14-14-14c-7.6,0-14,6.4-14,14C36.7,36.2,43.1,42.6,50.7,42.6
			L50.7,42.6z"/>
	</g>
</g>
<circle id="blue_circle_stroke" class="st10" cx="43.8" cy="39.4" r="25"/>
<g id="planet_lines">
	<path class="st10" d="M60.5,20.8c-4.3,3.6-9.9,5.7-15.9,5.7c-6.4,0-12.3-2.4-16.7-6.4"/>
	<path class="st10" d="M60.5,58c-4.3-3.6-9.9-5.7-15.9-5.7c-6.4,0-12.3,2.4-16.7,6.4"/>
	<line class="st11" x1="43.8" y1="14.4" x2="43.8" y2="64.4"/>
	<path class="st10" d="M43.8,64c-9.3-4.3-15.7-13.7-15.7-24.6c0-10.7,6.2-20,15.3-24.4"/>
	<path class="st10" d="M43.8,64c9.3-4.3,15.7-13.7,15.7-24.6c0-10.7-6.2-20-15.3-24.4"/>
	<line class="st10" x1="18.8" y1="39.4" x2="68.8" y2="39.4"/>
</g>
<g id="highlights_dot">
	<g>
		<path class="st9" d="M10.9,40.7c2.6,0,2.6-4,0-4C8.3,36.7,8.3,40.7,10.9,40.7L10.9,40.7z"/>
	</g>
</g>
<g id="highlights_line">
	<g>
		<path class="st9" d="M9.5,45.3c1.5,7.2,4.7,13.8,9.4,19.5c1.6,2,4.4-0.8,2.8-2.8c-4.2-5.2-7-11.2-8.4-17.7
			C12.8,41.7,9,42.8,9.5,45.3L9.5,45.3z"/>
	</g>
</g>
</svg>
