<?xml version="1.0" encoding="utf-8"?>
<!-- Generator: Adobe Illustrator 22.1.0, SVG Export Plug-In . SVG Version: 6.00 Build 0)  -->
<svg version="1.1" id="search" xmlns="http://www.w3.org/2000/svg" xmlns:xlink="http://www.w3.org/1999/xlink" x="0px" y="0px"
	 viewBox="0 0 137.2 127.9" style="enable-background:new 0 0 137.2 127.9;" xml:space="preserve">
<style type="text/css">
	.Drop_x0020_Shadow{fill:none;}
	.Round_x0020_Corners_x0020_2_x0020_pt{fill:#FFFFFF;stroke:#201600;stroke-miterlimit:10;}
	.Live_x0020_Reflect_x0020_X{fill:none;}
	.Bevel_x0020_Soft{fill:url(#SVGID_1_);}
	.Dusk{fill:#FFFFFF;}
	.Foliage_GS{fill:#FBDB44;}
	.Pompadour_GS{fill-rule:evenodd;clip-rule:evenodd;fill:#73ACE1;}
	.st0{opacity:0.58;}
	.st1{fill:#2E2E2E;}
	.st2{fill:#4B4C4C;}
	.st3{opacity:0.71;}
	.st4{fill:#D3D3D3;}
	.st5{fill:url(#part_2_fill_2_);}
	.st6{fill:none;stroke:#000000;stroke-width:0.75;stroke-miterlimit:10;}
	.st7{fill:url(#shadow_to_part2_1_);}
	.st8{fill:url(#part_2_fill_3_);stroke:#000000;stroke-width:0.75;stroke-miterlimit:10;}
	.st9{fill:#B1B2B2;}
	.st10{fill:none;stroke:#201600;stroke-miterlimit:10;}
	.st11{fill:#D1D3D3;}
	.st12{fill:url(#lense_fill_1_);}
	.st13{fill:none;stroke:#023D4F;stroke-miterlimit:10;}
	.st14{fill:url(#blue_shadow_2_);}
	.st15{fill:#D4EDFC;}
</style>
<linearGradient id="SVGID_1_" gradientUnits="userSpaceOnUse" x1="-327.8073" y1="-241.8342" x2="-327.1002" y2="-241.1271">
	<stop  offset="0" style="stop-color:#DCDDE3"/>
	<stop  offset="0.1783" style="stop-color:#D8D9DF"/>
	<stop  offset="0.3611" style="stop-color:#CCCDD3"/>
	<stop  offset="0.546" style="stop-color:#B7B9BE"/>
	<stop  offset="0.7324" style="stop-color:#9A9DA1"/>
	<stop  offset="0.9181" style="stop-color:#76797D"/>
	<stop  offset="1" style="stop-color:#63676A"/>
</linearGradient>
<g id="search_shadow" class="st0">
	<polygon class="st1" points="72.1,77.9 78.2,83.2 86.2,73.9 80,68.5 	"/>
	<path class="st1" d="M136.5,119.5l-5.1,5.9l-1.2,1.4c-1.1,1.2-3,1.4-4.2,0.3L84.4,91.3l1.2-1.4l9-10.4l41.5,35.9
		C137.4,116.4,137.5,118.3,136.5,119.5z"/>
	<path class="st1" d="M88.9,73.3L77.5,86.5c-0.9,1.1-0.8,2.7,0.3,3.6l2.6,2.2c1.1,0.9,2.7,0.8,3.6-0.3l11.3-13.1
		c0.9-1.1,0.8-2.7-0.3-3.6l-2.6-2.2C91.4,72.2,89.8,72.3,88.9,73.3z"/>
	<path class="st1" d="M4.8,64.9c-2.5-5.5-4-11.6-4-18.1C0.8,23,20.2,3.6,44,3.6c7.8,0,15.2,2.1,21.5,5.7c0,0,0,0,0.1,0
		c12.9,7.5,21.6,21.4,21.6,37.4C87.2,70.7,67.9,90,44,90c-9.3,0-17.9-2.9-24.9-7.9c0,0,0,0-0.1,0C12.9,77.7,8,71.8,4.8,64.9"/>
</g>
<polygon id="part3" class="st2" points="73,76 79,81.3 87.1,71.9 80.9,66.6 "/>
<g id="shadow_to_part_3" class="st3">
	<g>
		<path class="st4" d="M85.1,72.4c-1.8-1.3-3.5-2.7-5.2-4.1c-2.2-1.9-5.3,1.2-3.2,3.2c1.9,1.7,4,3.3,6.1,4.8c1,0.7,2.5,0.2,3.1-0.8
			C86.6,74.4,86.1,73.1,85.1,72.4L85.1,72.4z"/>
	</g>
</g>
<linearGradient id="part_2_fill_2_" gradientUnits="userSpaceOnUse" x1="117.8614" y1="94.2383" x2="103.9912" y2="108.1085">
	<stop  offset="5.434696e-02" style="stop-color:#F7D16F"/>
	<stop  offset="0.1396" style="stop-color:#F6ED54"/>
	<stop  offset="0.2267" style="stop-color:#F6EB56;stop-opacity:0.994"/>
	<stop  offset="0.9118" style="stop-color:#F7D374;stop-opacity:0.9681"/>
</linearGradient>
<path id="part_2_fill_1_" class="st5" d="M136.2,116.4l-5.1,5.9l-1.2,1.4c-1.1,1.2-3,1.4-4.2,0.3L84.1,88.2l1.2-1.4l9-10.4
	l41.5,35.9C137.1,113.3,137.2,115.1,136.2,116.4z"/>
<path id="part_2_stroke_1_" class="st6" d="M136.2,116.4l-5.1,5.9l-1.2,1.4c-1.1,1.2-3,1.4-4.2,0.3L84.1,88.2l1.2-1.4l9-10.4
	l41.5,35.9C137.1,113.3,137.2,115.1,136.2,116.4z"/>
<linearGradient id="shadow_to_part2_1_" gradientUnits="userSpaceOnUse" x1="136.397" y1="98.2644" x2="91.7065" y2="98.2644">
	<stop  offset="0" style="stop-color:#F7D16F"/>
	<stop  offset="0.9918" style="stop-color:#FFFFFF;stop-opacity:0.5"/>
</linearGradient>
<path id="shadow_to_part2" class="st7" d="M135.6,116.5l-2.9,3.1c1-1.3,1.3-2.8,0.1-3.9L91.7,80.3l2.6-3.4l41.1,35.4
	C136.5,113.4,136.8,114.9,135.6,116.5z"/>
<linearGradient id="part_2_fill_3_" gradientUnits="userSpaceOnUse" x1="76.5638" y1="79.5777" x2="95.6128" y2="79.5777">
	<stop  offset="0.2016" style="stop-color:#F7D16F"/>
	<stop  offset="0.585" style="stop-color:#F6ED54"/>
	<stop  offset="0.8145" style="stop-color:#F7D374;stop-opacity:0.9681"/>
</linearGradient>
<path id="part_2_fill" class="st8" d="M88.5,70.2L77.2,83.3c-0.9,1.1-0.8,2.7,0.3,3.6l2.6,2.2c1.1,0.9,2.7,0.8,3.6-0.3L95,75.8
	c0.9-1.1,0.8-2.7-0.3-3.6L92.2,70C91.1,69,89.4,69.2,88.5,70.2z"/>
<path id="part_1_stroke" class="st6" d="M88.5,70.2L77.2,83.3c-0.9,1.1-0.8,2.7,0.3,3.6l2.6,2.2c1.1,0.9,2.7,0.8,3.6-0.3L95,75.8
	c0.9-1.1,0.8-2.7-0.3-3.6L92.2,70C91.1,69,89.4,69.2,88.5,70.2z"/>
<path id="farame_fill" class="st9" d="M4.5,61.8c-2.5-5.5-4-11.6-4-18.1c0-23.9,19.3-43.2,43.2-43.2c7.8,0,15.2,2.1,21.5,5.7
	c0,0,0,0,0.1,0c12.9,7.5,21.6,21.4,21.6,37.4c0,23.9-19.3,43.2-43.2,43.2c-9.3,0-17.9-2.9-24.9-7.9c0,0,0,0-0.1,0
	C12.6,74.6,7.6,68.7,4.5,61.8"/>
<path id="frame_stroke" class="st10" d="M4.5,61.8c-2.5-5.5-4-11.6-4-18.1c0-23.9,19.3-43.2,43.2-43.2c7.8,0,15.2,2.1,21.5,5.7
	c0,0,0,0,0.1,0c12.9,7.5,21.6,21.4,21.6,37.4c0,23.9-19.3,43.2-43.2,43.2c-9.3,0-17.9-2.9-24.9-7.9c0,0,0,0-0.1,0
	C12.6,74.6,7.6,68.7,4.5,61.8"/>
<path id="highlight_carcas" class="st11" d="M5.4,45.3c-0.1,15.3-4.5,13.1-4.4-2C1,31.5,6.5,19.9,15,12C22.8,5,32.9,0.7,44.3,1
	c9.3,0.2,11,2.5,3.3,3C24.3,5.3,5.6,22.1,5.4,45.3z"/>
<linearGradient id="lense_fill_1_" gradientUnits="userSpaceOnUse" x1="10.8593" y1="43.6931" x2="76.5206" y2="43.6931">
	<stop  offset="0.1274" style="stop-color:#6086C4"/>
	<stop  offset="0.9204" style="stop-color:#7CE0FF"/>
</linearGradient>
<path id="lense_fill" class="st12" d="M76.5,43.7c0,18.1-14.7,32.8-32.8,32.8c-10.6,0-19.9-5-25.9-12.7c-4.3-5.6-6.9-12.5-6.9-20.1
	c0-18.1,14.7-32.8,32.8-32.8c9,0,17.2,3.6,23.1,9.5C72.8,26.3,76.5,34.6,76.5,43.7z"/>
<path id="lense_stroke" class="st13" d="M76.5,43.7c0,18.1-14.7,32.8-32.8,32.8c-10.6,0-19.9-5-25.9-12.7
	c-4.3-5.6-6.9-12.5-6.9-20.1c0-18.1,14.7-32.8,32.8-32.8c9,0,17.2,3.6,23.1,9.5C72.8,26.3,76.5,34.6,76.5,43.7z"/>
<linearGradient id="blue_shadow_2_" gradientUnits="userSpaceOnUse" x1="27.4106" y1="15.8657" x2="47.7929" y2="51.1689">
	<stop  offset="0" style="stop-color:#076899"/>
	<stop  offset="0.9965" style="stop-color:#FFFFFF;stop-opacity:0"/>
</linearGradient>
<path id="blue_shadow_1_" class="st14" d="M69,23.8c-6.4-6.3-15.5-10-25.4-9.2C28.4,15.9,16,28,14.4,43.2
	c-0.9,8.7,1.7,17.2,6.6,23.5c-6.1-6-9.7-14.9-9.4-24.2c0.5-16.5,13.8-30.1,30.3-31C52.8,10.9,62.8,15.8,69,23.8z"/>
<g id="highlight__line">
	<g>
		<path class="st15" d="M53.6,21.4C40,19.2,28.3,26.2,23.3,39c-1.4,3.6,4.4,5.2,5.8,1.6c3.7-9.4,12.9-15,23-13.4
			C55.8,27.8,57.5,22,53.6,21.4L53.6,21.4z"/>
	</g>
</g>
<g id="highlight_dot">
	<g>
		<path class="st15" d="M25.5,53c0-0.1,0-0.2,0-0.3c0-1.6-1.4-3.1-3-3c-1.6,0.1-3,1.3-3,3c0,0.1,0,0.2,0,0.3c0,1.6,1.4,3.1,3,3
			C24.1,55.9,25.5,54.6,25.5,53L25.5,53z"/>
	</g>
</g>
</svg>
